<?xml version="1.0" standalone="no"?>
<!DOCTYPE svg PUBLIC "-//W3C//DTD SVG 1.1//EN" "http://www.w3.org/Graphics/SVG/1.1/DTD/svg11.dtd" >
<svg xmlns="http://www.w3.org/2000/svg" xmlns:xlink="http://www.w3.org/1999/xlink" version="1.1">
<metadata>
Created by FontForge 20170731 at Thu May 15 14:17:57 2003
 By Aleksey,,,
Copyright (c) 1990, 1991, 1998, 2002 Adobe Systems Incorporated.  All Rights Reserved. (c) Copyright 1990, 1998, 2002 The Monotype Corporation PLC.
</metadata>
<defs>
<font id="GillSansStd-BoldCondensed" horiz-adv-x="521" >
  <font-face 
    font-family="Gill Sans Std Condensed"
    font-weight="700"
    font-stretch="condensed"
    units-per-em="1000"
    panose-1="2 11 8 6 2 1 4 2 2 3"
    ascent="682"
    descent="-318"
    x-height="462"
    cap-height="683"
    bbox="-179 -250 1007 934"
    underline-thickness="50"
    underline-position="-200"
    unicode-range="U+0020-FB02"
  />
<missing-glyph horiz-adv-x="500" 
d="M0 0v700h500v-700h-500zM250 395l170 255h-340zM280 350l170 -255v510zM80 50h340l-170 255zM50 605v-510l170 255z" />
    <glyph glyph-name="f_i" unicode="fi" horiz-adv-x="552" 
d="M72 0v380h-52v82h52v43q0 90 40 138.5t116 48.5q36 0 78 -16v-96q-48 15 -69 -1.5t-21 -67.5v-49h75v-82h-75v-380h-144zM351 0v462h144v-462h-144zM343 600q0 33 23 56.5t56 23.5t56.5 -23.5t23.5 -56.5q0 -32 -23.5 -55.5t-56.5 -23.5t-56 23.5t-23 55.5z" />
    <glyph glyph-name="f_l" unicode="fl" horiz-adv-x="552" 
d="M70 0v380h-51v82h51v37q0 92 50.5 142.5t136.5 50.5q34 0 79 -9h157v-683h-144v574q-30 13 -63 13q-72 0 -72 -93v-32h73v-82h-73v-380h-144z" />
    <glyph glyph-name=".notdef" horiz-adv-x="500" 
d="M0 0v700h500v-700h-500zM250 395l170 255h-340zM280 350l170 -255v510zM80 50h340l-170 255zM50 605v-510l170 255z" />
    <glyph glyph-name=".null" horiz-adv-x="0" 
 />
    <glyph glyph-name="nonmarkingreturn" horiz-adv-x="333" 
 />
    <glyph glyph-name="space" unicode=" " horiz-adv-x="333" 
 />
    <glyph glyph-name="exclam" unicode="!" horiz-adv-x="271" 
d="M135 150q33 0 56.5 -23t23.5 -56t-23.5 -56.5t-56.5 -23.5t-56 23.5t-23 56.5t23 56t56 23zM155 200h-38q-21 55 -41.5 181.5t-20.5 195.5q0 115 81 115t81 -115q0 -69 -20.5 -195.5t-41.5 -181.5z" />
    <glyph glyph-name="quotedbl" unicode="&#x22;" horiz-adv-x="474" 
d="M272 716h150v-121l-26 -133h-98l-26 133v121zM52 716h150v-121l-26 -133h-98l-26 133v121z" />
    <glyph glyph-name="numbersign" unicode="#" horiz-adv-x="667" 
d="M34 505h151l39 183h105l-39 -183h159l39 183h105l-39 -183h79v-105h-101l-28 -133h129v-105h-151l-39 -183h-105l39 183h-159l-39 -183h-105l39 183h-79v105h101l28 133h-129v105zM268 400l-28 -133h159l28 133h-159z" />
    <glyph glyph-name="dollar" unicode="$" horiz-adv-x="510" 
d="M40 29v118q96 -47 181 -48v167q-96 37 -142 84t-46 118q0 76 52.5 128.5t135.5 60.5v35h71v-33q86 -3 148 -31v-115q-81 37 -148 38v-163q185 -63 185 -205q0 -75 -53 -129t-132 -60v-109h-71v106q-98 3 -181 38zM292 238v-129q58 19 58 62q0 39 -58 67zM221 413v131
q-66 -16 -66 -65q0 -42 66 -66z" />
    <glyph glyph-name="percent" unicode="%" horiz-adv-x="740" 
d="M445 175q0 87 35.5 134t102.5 47t103 -47t36 -134q0 -86 -36 -133t-103 -47t-102.5 47t-35.5 133zM548 175q0 -60 8 -84t27 -24q20 0 28 24t8 84q0 61 -8 85t-28 24t-27.5 -24t-7.5 -85zM18 511q0 87 35.5 134t102.5 47t103 -47t36 -134q0 -86 -36 -133t-103 -47
t-102.5 47t-35.5 133zM121 511q0 -60 8 -84t27 -24q20 0 28 24t8 84q0 61 -8 85t-28 24t-27.5 -24t-7.5 -85zM129 -26l383 736h96l-379 -736h-100z" />
    <glyph glyph-name="ampersand" unicode="&#x26;" horiz-adv-x="604" 
d="M588 0h-163l-34 57q-73 -66 -158 -66q-82 0 -137 55t-55 136q0 126 141 212q-40 83 -40 134q0 71 47.5 117.5t120.5 46.5q70 0 116.5 -43.5t46.5 -108.5q0 -92 -113 -168l59 -97q24 43 40 83h129q-36 -103 -99 -194zM328 159l-88 139q-35 -28 -49 -50.5t-14 -49.5
q0 -31 22.5 -54.5t52.5 -23.5q37 0 76 39zM304 466q60 42 60 78q0 19 -15 34t-35 15t-33.5 -13t-13.5 -32q0 -35 37 -82z" />
    <glyph glyph-name="quotesingle" unicode="'" horiz-adv-x="238" 
d="M44 716h150v-121l-26 -133h-98l-26 133v121z" />
    <glyph glyph-name="parenleft" unicode="(" horiz-adv-x="354" 
d="M212 230q0 -159 31 -264.5t104 -197.5h-101q-97 120 -143 231t-46 231t46 231t143 231h101q-73 -92 -104 -197.5t-31 -264.5z" />
    <glyph glyph-name="parenright" unicode=")" horiz-adv-x="354" 
d="M142 230q0 159 -31 264.5t-104 197.5h101q97 -120 143 -231t46 -231t-46 -231t-143 -231h-101q73 92 104 197.5t31 264.5z" />
    <glyph glyph-name="asterisk" unicode="*" horiz-adv-x="500" 
d="M275 445l-19 -10l51 -158q5 -16 -6 -21.5t-51 -5.5q-42 0 -52 5.5t-5 22.5l51 157l-18 9l-116 -120q-10 -12 -19.5 -6t-28.5 39q-22 39 -23.5 53.5t14.5 16.5l164 35v18l-150 33q-27 6 -28.5 16.5t21.5 51.5q22 38 34 43t22 -11l109 -116l19 10l-51 158q-5 16 6 21.5
t51 5.5q42 0 52 -5.5t5 -22.5l-51 -157l18 -9l116 120q10 12 19.5 6t28.5 -39q22 -39 23.5 -53.5t-14.5 -16.5l-164 -35v-18l150 -33q27 -6 28.5 -16.5t-21.5 -51.5q-22 -38 -34 -43t-22 11z" />
    <glyph glyph-name="plus" unicode="+" horiz-adv-x="667" 
d="M59 394h214v214h121v-214h214v-121h-214v-214h-121v214h-214v121z" />
    <glyph glyph-name="comma" unicode="," horiz-adv-x="271" 
d="M55 -152v25q45 39 52 122q-56 22 -56 79q0 33 23 56t56 23q42 0 68 -31.5t26 -83.5q0 -71 -43.5 -119.5t-125.5 -70.5z" />
    <glyph glyph-name="hyphen" unicode="-" horiz-adv-x="344" 
d="M37 163v133h269v-133h-269z" />
    <glyph glyph-name="period" unicode="." horiz-adv-x="271" 
d="M136 150q33 0 56 -23t23 -56t-23 -56.5t-56 -23.5t-56.5 23.5t-23.5 56.5t23.5 56t56.5 23z" />
    <glyph glyph-name="slash" unicode="/" horiz-adv-x="281" 
d="M6 -9l166 692h103l-167 -692h-102z" />
    <glyph glyph-name="zero" unicode="0" 
d="M36 341q0 170 57.5 260.5t168.5 90.5q112 0 167.5 -94.5t55.5 -256.5t-55.5 -256t-169.5 -94q-109 0 -166.5 90t-57.5 260zM191 340q0 -120 12.5 -175.5t56.5 -55.5q41 0 55.5 52t14.5 180q0 122 -13.5 177.5t-56.5 55.5q-44 0 -56.5 -57t-12.5 -177z" />
    <glyph glyph-name="one" unicode="1" 
d="M183 0v683h155v-683h-155z" />
    <glyph glyph-name="two" unicode="2" 
d="M458 135v-135h-441v11q22 20 82 106.5t116.5 193t56.5 154.5q0 44 -27.5 73t-69.5 29q-60 0 -138 -50v124q86 51 177 51q88 0 145 -52.5t57 -133.5q0 -69 -39 -155t-133 -216h214z" />
    <glyph glyph-name="three" unicode="3" 
d="M50 26v122q78 -39 134 -39q51 0 82 26t31 69t-34.5 70t-94.5 23v114q53 -2 84 20.5t31 61.5q0 37 -27 59t-70 22q-54 0 -126 -36v122q93 32 159 32q97 0 158 -51t61 -133q0 -99 -103 -145q117 -47 117 -168q0 -89 -66.5 -146.5t-170.5 -57.5q-70 0 -165 35z" />
    <glyph glyph-name="four" unicode="4" 
d="M279 0v176h-259v111l265 405h138v-410h60v-106h-60v-176h-144zM279 282v236h-2l-153 -236h155z" />
    <glyph glyph-name="five" unicode="5" 
d="M61 17v120q59 -28 122 -28q53 0 86.5 27.5t33.5 70.5q0 44 -36 70t-98 26q-38 0 -80 -9v389h353v-135h-221v-134q110 -1 173.5 -56t63.5 -150q0 -98 -69 -157.5t-182 -59.5q-75 0 -146 26z" />
    <glyph glyph-name="six" unicode="6" 
d="M412 692l-157 -260q21 4 42 4q91 0 141 -63.5t50 -152.5q0 -98 -63.5 -163.5t-158.5 -65.5q-101 0 -164 66t-63 172q0 61 22.5 124.5t78.5 154.5l112 184h160zM189 221q0 -52 21.5 -82t57.5 -30q35 0 55.5 29.5t20.5 79.5q0 52 -20 80.5t-57 28.5q-36 0 -57 -28.5
t-21 -77.5z" />
    <glyph glyph-name="seven" unicode="7" 
d="M104 46l182 502h-252v135h442v-30l-237 -662z" />
    <glyph glyph-name="eight" unicode="8" 
d="M148 354q-93 50 -93 151q0 82 58.5 134.5t148.5 52.5q88 0 145.5 -53t57.5 -134q0 -103 -95 -151q117 -48 117 -163q0 -75 -58 -137.5t-171 -62.5q-111 0 -168.5 59t-57.5 139q0 61 27.5 100t88.5 65zM199 499q0 -106 63 -106q59 0 59 106q0 97 -61 97t-61 -97zM187 192
q0 -49 19.5 -77t53.5 -28t53 28.5t19 78.5q0 51 -19 80t-53 29q-35 0 -54 -29.5t-19 -81.5z" />
    <glyph glyph-name="nine" unicode="9" 
d="M112 -9l157 260q-21 -4 -42 -4q-90 0 -141 63t-51 153q0 98 63.5 163.5t158.5 65.5q101 0 164.5 -66t63.5 -172q0 -113 -74 -234l-140 -229h-159zM335 462q0 52 -21.5 82t-57.5 30q-35 0 -56 -29.5t-21 -79.5q0 -52 20.5 -80.5t57.5 -28.5q35 0 56.5 28.5t21.5 77.5z" />
    <glyph glyph-name="colon" unicode=":" horiz-adv-x="271" 
d="M136 451q33 0 56 -23t23 -56t-23 -56.5t-56 -23.5t-56.5 23.5t-23.5 56.5t23.5 56t56.5 23zM136 150q33 0 56 -23t23 -56t-23 -56.5t-56 -23.5t-56.5 23.5t-23.5 56.5t23.5 56t56.5 23z" />
    <glyph glyph-name="semicolon" unicode=";" horiz-adv-x="271" 
d="M55 -152v25q45 39 52 122q-56 22 -56 79q0 33 23 56t56 23q42 0 68 -31.5t26 -83.5q0 -71 -43.5 -119.5t-125.5 -70.5zM136 451q33 0 56 -23t23 -56t-23 -56.5t-56 -23.5t-56.5 23.5t-23.5 56.5t23.5 56t56.5 23z" />
    <glyph glyph-name="less" unicode="&#x3c;" horiz-adv-x="667" 
d="M60 278v110l547 228v-131l-381 -152l381 -152v-131z" />
    <glyph glyph-name="equal" unicode="=" horiz-adv-x="667" 
d="M59 276h549v-121h-549v121zM59 511h549v-121h-549v121z" />
    <glyph glyph-name="greater" unicode="&#x3e;" horiz-adv-x="667" 
d="M607 278l-547 -228v131l381 152l-381 152v131l547 -228v-110z" />
    <glyph glyph-name="question" unicode="?" horiz-adv-x="354" 
d="M173 200h-37q-40 59 -40 115q0 50 34 115.5t34 93.5q0 26 -18 44.5t-44 18.5q-36 0 -66 -29l-13 3l31 120q43 11 81 11q82 0 132 -43.5t50 -114.5q0 -41 -23 -85.5t-50 -77t-50 -72.5t-23 -74q0 -11 2 -25zM155 150q33 0 56.5 -23t23.5 -56t-23.5 -56.5t-56.5 -23.5
t-56 23.5t-23 56.5t23 56t56 23z" />
    <glyph glyph-name="at" unicode="@" horiz-adv-x="975" 
d="M683 505l-61 -386q-4 -19 -0.5 -28.5t17.5 -9.5q15 0 38 13.5t48.5 39.5t43 76t17.5 112q0 128 -73.5 203t-198.5 75q-144 0 -234 -99t-90 -257q0 -154 87 -247.5t230 -93.5q137 0 253 91h110q-58 -75 -157 -124t-204 -49q-172 0 -287.5 121t-115.5 302q0 57 13 115
t43.5 117.5t76 104.5t117 73.5t158.5 28.5q88 0 157.5 -30.5t112 -81.5t64.5 -114.5t22 -134.5q0 -79 -28.5 -144t-71 -102t-85.5 -57t-78 -20q-59 0 -76 58q-59 -58 -117 -58q-71 0 -115 58t-44 152q0 75 25.5 146t74.5 119t109 48q36 0 62 -16.5t53 -55.5l9 55h95z
M363 182q0 -50 17.5 -78t49.5 -28q28 0 55 27q26 26 43 100t17 144q0 91 -64 91q-54 0 -86 -76.5t-32 -179.5z" />
    <glyph glyph-name="A" unicode="A" horiz-adv-x="531" 
d="M6 0l179 687h161l179 -687h-150l-32 142h-154l-33 -142h-150zM211 253h109l-53 248h-2z" />
    <glyph glyph-name="B" unicode="B" horiz-adv-x="563" 
d="M66 0v683h231q98 0 149.5 -51.5t51.5 -121.5q0 -95 -92 -139q115 -53 115 -170q0 -85 -60 -143t-162 -58h-233zM221 111h50q95 0 95 92q0 40 -21 66.5t-64 26.5h-60v-185zM221 407h33q89 0 89 83q0 82 -89 82h-33v-165z" />
    <glyph glyph-name="C" unicode="C" 
d="M473 175v-133q-65 -51 -159 -51q-123 0 -200 94t-77 250q0 162 75.5 259.5t201.5 97.5q81 0 154 -38v-131q-69 40 -117 40q-70 0 -113 -55.5t-43 -163.5q0 -109 38 -166.5t110 -57.5q57 0 130 55z" />
    <glyph glyph-name="D" unicode="D" horiz-adv-x="604" 
d="M66 0v683h202q62 0 112.5 -19t84 -51t56 -76t32.5 -91.5t10 -98.5q0 -62 -16 -121t-48 -111t-89.5 -83.5t-133.5 -31.5h-210zM221 115h37q80 0 113.5 57t33.5 167q0 229 -139 229h-45v-453z" />
    <glyph glyph-name="E" unicode="E" horiz-adv-x="510" 
d="M66 0v683h398v-118h-243v-159h226v-118h-226v-170h252v-118h-407z" />
    <glyph glyph-name="F" unicode="F" horiz-adv-x="448" 
d="M66 0v683h359v-118h-204v-161h197v-118h-197v-286h-155z" />
    <glyph glyph-name="G" unicode="G" horiz-adv-x="594" 
d="M550 368v-297q-105 -80 -222 -80q-126 0 -208 96t-82 244q0 157 86.5 259t220.5 102q92 0 181 -54v-142q-46 37 -80.5 52t-79.5 15q-81 0 -125.5 -59.5t-44.5 -170.5q0 -98 34 -155.5t99 -57.5q35 0 66 18v115h-77v115h232z" />
    <glyph glyph-name="H" unicode="H" horiz-adv-x="615" 
d="M67 0v683h155v-279h171v279h155v-683h-155v286h-171v-286h-155z" />
    <glyph glyph-name="I" unicode="I" horiz-adv-x="292" 
d="M68 0v683h155v-683h-155z" />
    <glyph glyph-name="J" unicode="J" horiz-adv-x="292" 
d="M-18 -218l-9 125q19 -5 29 -5q67 0 67 90v691h155v-682q0 -68 -16 -116.5t-42.5 -72.5t-52.5 -34t-54 -10q-34 0 -77 14z" />
    <glyph glyph-name="K" unicode="K" horiz-adv-x="583" 
d="M54 0v683h155v-331h2l171 331h155l-170 -325l213 -358h-173l-196 330h-2v-330h-155z" />
    <glyph glyph-name="L" unicode="L" horiz-adv-x="479" 
d="M66 0v683h155v-560h250v-123h-405z" />
    <glyph glyph-name="M" unicode="M" horiz-adv-x="729" 
d="M68 0v683h140l157 -281l157 281h140v-683h-146v437h-2l-134 -259h-30l-134 259h-2v-437h-146z" />
    <glyph glyph-name="N" unicode="N" horiz-adv-x="615" 
d="M69 0v683h144l185 -386h2v386h146v-683h-135l-194 403h-2v-403h-146z" />
    <glyph glyph-name="O" unicode="O" horiz-adv-x="615" 
d="M38 348q0 84 23 151t61.5 108.5t86 63t98.5 21.5q50 0 96 -19.5t85.5 -59.5t63.5 -110t24 -162q0 -77 -17 -138.5t-44 -100.5t-63.5 -64.5t-72 -36t-72.5 -10.5q-52 0 -98.5 20.5t-85.5 61.5t-62 112t-23 163zM196 342q0 -108 25 -162.5t86 -54.5q56 0 83.5 49t27.5 168
q0 66 -8 110t-33.5 75t-69.5 31q-60 0 -85.5 -55t-25.5 -161z" />
    <glyph glyph-name="P" unicode="P" horiz-adv-x="542" 
d="M66 0v683h221q111 0 168 -61.5t57 -143.5q0 -25 -5 -49.5t-20 -52.5t-39 -49t-66 -35t-96 -14h-65v-278h-155zM221 396h45q50 0 70.5 21.5t20.5 62.5q0 36 -20 60.5t-66 24.5h-50v-169z" />
    <glyph glyph-name="Q" unicode="Q" horiz-adv-x="615" 
d="M248 -2q-101 26 -155.5 116.5t-54.5 230.5q0 168 79 257.5t190 89.5q110 0 181 -79q88 -98 88 -272q0 -125 -45 -211t-130 -121q46 -56 110 -56q19 0 45 11l5 2l14 -9l-84 -112q-81 2 -147 48t-96 105zM196 342q0 -111 25.5 -163.5t85.5 -52.5q59 0 85 51t26 165
q0 106 -23.5 161t-86.5 55q-60 0 -86 -53.5t-26 -162.5z" />
    <glyph glyph-name="R" unicode="R" horiz-adv-x="552" 
d="M66 0v683h223q103 0 161.5 -52.5t58.5 -138.5q0 -58 -27.5 -96.5t-87.5 -63.5q27 -15 48 -61.5t48.5 -134.5t46.5 -136h-161l-37 128q-17 60 -27 88t-24 46.5t-27 22t-40 3.5v-288h-155zM221 406h49q40 0 62 21t22 61q0 77 -86 77h-47v-159z" />
    <glyph glyph-name="S" unicode="S" horiz-adv-x="448" 
d="M44 45v147q88 -72 144 -72q28 0 45.5 16t17.5 41q0 27 -22 57t-53.5 59t-62.5 61t-53 75t-22 89q0 74 56.5 124t139.5 50q72 0 149 -42v-128q-88 49 -132 49q-28 0 -45.5 -13t-17.5 -34q0 -22 23 -50.5t55 -59t64.5 -64.5t55.5 -78.5t23 -89.5q0 -82 -56.5 -136.5
t-141.5 -54.5q-76 0 -167 54z" />
    <glyph glyph-name="T" unicode="T" horiz-adv-x="500" 
d="M172 0v565h-156v118h467v-118h-156v-565h-155z" />
    <glyph glyph-name="U" unicode="U" horiz-adv-x="594" 
d="M58 683h155v-470q0 -42 22 -67.5t62 -25.5q84 0 84 101v462h155v-449q0 -115 -60 -179t-179 -64q-112 0 -175.5 59t-63.5 182v451z" />
    <glyph glyph-name="V" unicode="V" horiz-adv-x="542" 
d="M235 -9l-229 692h157l105 -352h2l99 352h157l-219 -692h-72z" />
    <glyph glyph-name="W" unicode="W" horiz-adv-x="852" 
d="M221 -9l-214 692h149l97 -361h2l109 361h124l107 -361h2l99 361h149l-213 -692h-67l-139 442h-2l-136 -442h-67z" />
    <glyph glyph-name="X" unicode="X" horiz-adv-x="604" 
d="M17 0l200 362l-180 321h170l97 -188l98 188h169l-180 -321l200 -362h-169l-118 224l-118 -224h-169z" />
    <glyph glyph-name="Y" unicode="Y" horiz-adv-x="542" 
d="M198 0v312l-189 371h166l103 -210l85 210h165l-171 -371v-312h-159z" />
    <glyph glyph-name="Z" unicode="Z" horiz-adv-x="500" 
d="M13 0l244 565h-217v118h428l-242 -565h242v-118h-455z" />
    <glyph glyph-name="bracketleft" unicode="[" horiz-adv-x="375" 
d="M89 -220v903h275v-104h-134v-695h134v-104h-275z" />
    <glyph glyph-name="backslash" unicode="\" horiz-adv-x="281" 
d="M275 -9h-101l-168 692h104z" />
    <glyph glyph-name="bracketright" unicode="]" horiz-adv-x="375" 
d="M286 -220h-275v104h134v695h-134v104h275v-903z" />
    <glyph glyph-name="asciicircum" unicode="^" horiz-adv-x="583" 
d="M56 338l181 390h109l181 -390h-139l-96 239l-97 -239h-139z" />
    <glyph glyph-name="underscore" unicode="_" horiz-adv-x="500" 
d="M-6 -75h512v-50h-512v50z" />
    <glyph glyph-name="grave" unicode="`" horiz-adv-x="333" 
d="M270 525h-75l-185 167h176z" />
    <glyph glyph-name="a" unicode="a" horiz-adv-x="479" 
d="M470 118v-82q-72 -44 -120 -44q-64 0 -74 64q-37 -35 -67 -50t-67 -15q-50 0 -84.5 33.5t-34.5 82.5q0 65 60 105t187 82v16q0 63 -58 63q-71 0 -158 -70v105q48 34 92 48.5t100 14.5q168 0 168 -133v-188q0 -33 2.5 -41.5t11.5 -8.5q16 0 42 18zM270 119v111
q-62 -22 -89.5 -43t-27.5 -50q0 -22 14 -35.5t36 -13.5q29 0 67 31z" />
    <glyph glyph-name="b" unicode="b" horiz-adv-x="542" 
d="M58 0v683h144v-243q56 31 107 31q84 0 138.5 -67.5t54.5 -171.5q0 -101 -55 -169t-137 -68q-59 0 -108 45v-40h-144zM202 336v-193q32 -43 74 -43q35 0 55.5 34.5t20.5 95.5q0 63 -22 99.5t-60 36.5q-34 0 -68 -30z" />
    <glyph glyph-name="c" unicode="c" horiz-adv-x="427" 
d="M395 132v-111q-72 -30 -129 -30q-98 0 -164 67.5t-66 169.5q0 106 65 174.5t165 68.5q57 0 123 -31v-109q-50 30 -93 30q-48 0 -79 -36t-31 -91q0 -60 32 -97t83 -37q43 0 94 32z" />
    <glyph glyph-name="d" unicode="d" horiz-adv-x="542" 
d="M340 0v46q-61 -55 -125 -55q-77 0 -127.5 68.5t-50.5 171.5q0 106 51 173t131 67q61 0 121 -51v263h144v-683h-144zM340 147v176q-38 38 -73 38q-38 0 -59 -34t-21 -97q0 -62 20 -96.5t56 -34.5q42 0 77 48z" />
    <glyph glyph-name="e" unicode="e" horiz-adv-x="469" 
d="M418 124v-87q-78 -46 -168 -46q-61 0 -105.5 22.5t-66.5 59t-32 73.5t-10 76q0 108 58 178.5t147 70.5q85 0 138.5 -66.5t51.5 -195.5h-249q5 -59 35 -90.5t81 -31.5q57 0 120 37zM182 275h116q-2 114 -57 114q-59 0 -59 -114z" />
    <glyph glyph-name="f" unicode="f" horiz-adv-x="292" 
d="M72 0v380h-45v82h45v33q0 96 54.5 146.5t137.5 50.5q36 0 77 -9v-102q-31 6 -51 6q-74 0 -74 -80v-45h74v-82h-74v-380h-144z" />
    <glyph glyph-name="g" unicode="g" horiz-adv-x="479" 
d="M476 386h-91q46 -50 46 -110q0 -62 -46 -108q-26 -26 -66.5 -38t-72 -12t-55 -7t-23.5 -25q0 -19 31 -24.5t72 -4t90 -10t76 -38.5q38 -38 38 -93q0 -66 -57.5 -107t-171.5 -41q-64 0 -111 13t-69.5 33t-32.5 39.5t-10 38.5q0 37 27 64t76 38v2q-67 21 -67 75
q0 27 19.5 48t56.5 30q-87 55 -87 149q0 74 57 123.5t153 49.5h218v-85zM178 290q0 -99 65 -99q64 0 64 98q0 93 -65 93q-64 0 -64 -92zM146 -96q0 -57 106 -57q105 0 105 55q0 58 -106 58q-48 0 -76.5 -15t-28.5 -41z" />
    <glyph glyph-name="h" unicode="h" horiz-adv-x="531" 
d="M56 0v683h144v-281h2q47 69 128 69q62 0 105 -41t43 -129v-301h-144v283q0 43 -12.5 63t-42.5 20q-25 0 -40.5 -14t-38.5 -56v-296h-144z" />
    <glyph glyph-name="i" unicode="i" horiz-adv-x="260" 
d="M58 0v462h144v-462h-144zM131 689q33 0 56 -23t23 -56t-23 -56.5t-56 -23.5t-56.5 23.5t-23.5 56.5t23.5 56t56.5 23z" />
    <glyph glyph-name="j" unicode="j" horiz-adv-x="260" 
d="M35 -232l-38 126q39 15 51 33.5t12 57.5v477h144v-469q0 -111 -42.5 -159t-126.5 -66zM131 689q33 0 56 -23t23 -56t-23 -56.5t-56 -23.5t-56.5 23.5t-23.5 56.5t23.5 56t56.5 23z" />
    <glyph glyph-name="k" unicode="k" 
d="M358 235l161 -235h-157l-160 229v-229h-144v683h144v-450l141 229h151z" />
    <glyph glyph-name="l" unicode="l" horiz-adv-x="260" 
d="M58 0v683h144v-683h-144z" />
    <glyph glyph-name="m" unicode="m" horiz-adv-x="813" 
d="M57 0v462h144v-71h2q55 80 137 80q46 0 79 -24.5t50 -69.5q48 94 141 94q58 0 103.5 -41.5t45.5 -122.5v-307h-144v251q0 61 -9.5 87t-41.5 26q-47 0 -84 -64v-300h-144v272q0 92 -54 92q-41 0 -81 -68v-296h-144z" />
    <glyph glyph-name="n" unicode="n" horiz-adv-x="531" 
d="M56 0v462h144v-65h2q50 74 130 74q67 0 107 -43t40 -122v-306h-144v283q0 83 -56 83q-50 0 -79 -74v-292h-144z" />
    <glyph glyph-name="o" unicode="o" 
d="M485 229q0 -105 -63 -173t-162 -68q-97 0 -160.5 68.5t-63.5 172.5q0 111 67 176.5t157 65.5q92 0 158.5 -66.5t66.5 -175.5zM333 229q0 137 -73 137q-74 0 -74 -137q0 -136 74 -136q38 0 55.5 32.5t17.5 103.5z" />
    <glyph glyph-name="p" unicode="p" horiz-adv-x="542" 
d="M58 -220v682h144v-44q61 53 125 53q76 0 126 -69t50 -175q0 -101 -50 -168.5t-124 -67.5q-60 0 -127 52v-263h-144zM202 320v-177q36 -40 74 -40q35 0 56 35.5t21 96.5q0 62 -19 96.5t-53 34.5q-39 0 -79 -46z" />
    <glyph glyph-name="q" unicode="q" horiz-adv-x="542" 
d="M340 -220v245q-52 -34 -106 -34q-84 0 -139.5 67.5t-55.5 169.5q0 117 62.5 180t133.5 63q56 0 105 -36v27h144v-682h-144zM340 129v197q-32 40 -67 40q-39 0 -61.5 -36t-22.5 -99q0 -62 23 -98.5t63 -36.5q33 0 65 33z" />
    <glyph glyph-name="r" unicode="r" horiz-adv-x="396" 
d="M56 0v462h133v-175h2q46 180 127 180q40 0 83 -27l-31 -128q-34 23 -60 23q-53 0 -81.5 -79t-28.5 -185v-71h-144z" />
    <glyph glyph-name="s" unicode="s" horiz-adv-x="396" 
d="M40 30v107q84 -48 148 -48q24 0 38.5 10.5t14.5 29.5q0 17 -21.5 30t-52.5 24.5t-61.5 27t-52 44.5t-21.5 69q0 65 47.5 106t121.5 41q75 0 150 -42v-95q-45 24 -83 36q-34 10 -68 10q-56 0 -56 -33q0 -17 23 -30t56 -25t66.5 -28t56.5 -47.5t23 -75.5q0 -66 -48 -108
t-124 -42q-72 0 -157 39z" />
    <glyph glyph-name="t" unicode="t" horiz-adv-x="396" 
d="M367 136v-106q-74 -39 -130 -39q-62 0 -107.5 38t-45.5 119v223h-66v18l185 216h25v-143h132v-91h-132v-196q0 -73 52 -73q31 0 87 34z" />
    <glyph glyph-name="u" unicode="u" horiz-adv-x="531" 
d="M331 0v59h-2q-38 -68 -128 -68q-65 0 -107.5 42.5t-42.5 131.5v297h144v-289q0 -77 56 -77q58 0 80 73v293h144v-462h-144z" />
    <glyph glyph-name="v" unicode="v" horiz-adv-x="479" 
d="M208 -9l-195 471h138l93 -244h2l82 244h139l-184 -471h-75z" />
    <glyph glyph-name="w" unicode="w" horiz-adv-x="708" 
d="M184 -9l-173 471h137l74 -237h2l82 237h96l82 -237h2l74 237h137l-172 -471h-73l-97 273h-2l-95 -273h-74z" />
    <glyph glyph-name="x" unicode="x" horiz-adv-x="479" 
d="M11 0l146 235l-146 227h160l66 -117l63 117h161l-142 -225l150 -237h-160l-67 125l-71 -125h-160z" />
    <glyph glyph-name="y" unicode="y" horiz-adv-x="479" 
d="M42 -220l125 305l-162 377h146l88 -211l83 211h146l-280 -682h-146z" />
    <glyph glyph-name="z" unicode="z" horiz-adv-x="448" 
d="M18 0l188 357h-167v105h375l-183 -357h183v-105h-396z" />
    <glyph glyph-name="braceleft" unicode="{" horiz-adv-x="389" 
d="M31 172v118q64 1 85.5 40.5t21.5 142.5q0 85 8 120.5t35 62.5q44 44 136 44h48v-118h-26q-42 0 -57 -15q-14 -14 -17 -54.5t-1.5 -83.5t-11 -92.5t-41.5 -78.5q-17 -17 -37 -27q20 -10 37 -27q29 -29 41.5 -78.5t11 -92.5t1.5 -83.5t17 -54.5q15 -15 57 -15h26v-118h-48
q-92 0 -136 44q-27 27 -35 62.5t-8 120.5q0 103 -21.5 142.5t-85.5 40.5z" />
    <glyph glyph-name="bar" unicode="|" horiz-adv-x="566" 
d="M221 750h122v-1000h-122v1000z" />
    <glyph glyph-name="braceright" unicode="}" horiz-adv-x="389" 
d="M358 290v-118q-64 -1 -85.5 -40.5t-21.5 -142.5q0 -85 -8 -120.5t-35 -62.5q-44 -44 -136 -44h-48v118h26q42 0 57 15q14 14 17 54.5t1.5 83.5t11 92.5t41.5 78.5q17 17 37 27q-20 10 -37 27q-29 29 -41.5 78.5t-11 92.5t-1.5 83.5t-17 54.5q-15 15 -57 15h-26v118h48
q92 0 136 -44q27 -27 35 -62.5t8 -120.5q0 -103 21.5 -142.5t85.5 -40.5z" />
    <glyph glyph-name="asciitilde" unicode="~" horiz-adv-x="667" 
d="M607 447v-124q-79 -70 -156 -70q-45 0 -129 39q-78 39 -112 39q-73 0 -150 -74v125q79 69 159 69q47 0 127 -38.5t116 -38.5q63 0 145 73z" />
    <glyph glyph-name="uni00A0" unicode="&#xa0;" horiz-adv-x="333" 
 />
    <glyph glyph-name="exclamdown" unicode="&#xa1;" horiz-adv-x="271" 
d="M135 312q-33 0 -56 23t-23 56t23 56.5t56 23.5t56.5 -23.5t23.5 -56.5t-23.5 -56t-56.5 -23zM116 262h38q21 -55 41.5 -181.5t20.5 -195.5q0 -115 -81 -115t-81 115q0 69 20.5 195.5t41.5 181.5z" />
    <glyph glyph-name="cent" unicode="&#xa2;" horiz-adv-x="427" 
d="M404 629l-49 -174q12 -4 36 -15v-109q-43 25 -64 26l-69 -248q24 -9 45 -9q44 0 93 32v-111q-71 -30 -128 -30q-20 0 -43 4l-52 -184h-47l54 197q-68 28 -106 85.5t-38 134.5q0 105 65.5 174t164.5 69q18 0 44 -3l46 161h48zM219 142l61 217q-94 -25 -94 -126
q0 -48 33 -91z" />
    <glyph glyph-name="sterling" unicode="&#xa3;" horiz-adv-x="510" 
d="M55 -9h-18q28 169 58 285h-52v121h81q66 295 257 295q32 0 52 -7l42 -126q-29 8 -59 8q-55 0 -84 -40t-52 -130h83v-121h-116q-23 -92 -28 -127q13 5 40 5q20 0 70.5 -13t68.5 -13q35 0 80 21v-140q-59 -18 -104 -18q-36 0 -103.5 13t-102.5 13q-59 0 -113 -26z" />
    <glyph glyph-name="currency" unicode="&#xa4;" horiz-adv-x="667" 
d="M69 517l79 79l66 -66q54 33 119 33q64 0 119 -33l66 66l79 -79l-66 -66q32 -58 32 -118q0 -65 -33 -119l67 -67l-79 -79l-67 67q-56 -33 -118 -33q-65 0 -118 33l-67 -67l-79 79l67 67q-34 48 -34 119q0 65 33 118zM333 452q-49 0 -84 -35t-35 -84q0 -50 35 -85t84 -35
t84.5 35.5t35.5 84.5t-35 84t-85 35z" />
    <glyph glyph-name="yen" unicode="&#xa5;" horiz-adv-x="542" 
d="M198 105h-189v75h189v57h-189v74h190l-190 372h166l103 -210l85 210h165l-171 -371h171v-75h-171v-57h171v-75h-171v-105h-159v105z" />
    <glyph glyph-name="brokenbar" unicode="&#xa6;" horiz-adv-x="566" 
d="M221 175h122v-350h-122v350zM221 675h122v-350h-122v350z" />
    <glyph glyph-name="section" unicode="&#xa7;" 
d="M34 263q0 96 85 165q-45 54 -45 111q0 67 55.5 110t148.5 43q74 0 123.5 -33.5t49.5 -83.5q0 -29 -21.5 -49t-53.5 -20q-28 0 -41.5 15.5t-15.5 33.5t-13.5 33.5t-35.5 15.5q-26 0 -42.5 -14t-16.5 -33q0 -28 28.5 -58t69 -59.5t81 -62t69 -77t28.5 -93.5
q0 -48 -22.5 -96.5t-60.5 -82.5q43 -50 43 -109q0 -67 -52 -107.5t-137 -40.5q-79 0 -132 33.5t-53 82.5q0 29 21 48.5t52 19.5q27 0 40.5 -14.5t16.5 -32.5t15.5 -32.5t37.5 -14.5q26 0 42.5 11.5t16.5 29.5q0 29 -38 65.5t-96.5 79t-78.5 62.5q-68 68 -68 154zM336 104
q27 34 27 72q0 31 -20 55t-74 63t-80 61q-29 -32 -29 -72q0 -18 5 -31.5t22 -30t32 -28.5t52 -39.5t65 -49.5z" />
    <glyph glyph-name="dieresis" unicode="&#xa8;" horiz-adv-x="333" 
d="M262 661q22 0 38 -15.5t16 -38.5t-16 -38.5t-38 -15.5t-38 15.5t-16 38.5t16 38.5t38 15.5zM71 661q23 0 38.5 -15.5t15.5 -38.5t-15.5 -38.5t-38.5 -15.5t-38.5 15.5t-15.5 38.5t15.5 38.5t38.5 15.5z" />
    <glyph glyph-name="copyright" unicode="&#xa9;" horiz-adv-x="738" 
d="M459 301l79 -27q-18 -61 -60.5 -93.5t-103.5 -32.5q-86 0 -137 56t-51 150q0 97 51 153.5t138 56.5q120 0 163 -119l-79 -19q-26 68 -86 68q-48 0 -75 -36.5t-27 -101.5t25.5 -102t69.5 -37q70 0 93 84zM369 730q155 0 264.5 -109.5t109.5 -264.5t-109.5 -264.5
t-264.5 -109.5t-264.5 109.5t-109.5 264.5t109.5 264.5t264.5 109.5zM369 657q-125 0 -213 -88.5t-88 -212.5t88 -212.5t213 -88.5t213 88.5t88 212.5t-88 212.5t-213 88.5z" />
    <glyph glyph-name="ordfeminine" unicode="&#xaa;" horiz-adv-x="302" 
d="M305 486v-66q-51 -28 -83 -28q-36 0 -51 34q-44 -34 -82 -34q-35 0 -58.5 22t-23.5 54q0 37 36 63.5t122 51.5q0 34 -32 34q-44 0 -106 -47v79q62 40 128 40q114 0 114 -88v-108q0 -24 5 -24q1 0 6 3t13 7.5t12 6.5zM165 478v52q-38 -14 -50.5 -23t-12.5 -22
q0 -22 26 -22q17 0 37 15z" />
    <glyph glyph-name="guillemotleft" unicode="&#xab;" horiz-adv-x="510" 
d="M355 230l132 -230h-116l-132 230l132 230h116zM143 230l132 -230h-116l-132 230l132 230h116z" />
    <glyph glyph-name="logicalnot" unicode="&#xac;" horiz-adv-x="667" 
d="M59 511h549v-356h-121v235h-428v121z" />
    <glyph glyph-name="uni00AD" unicode="&#xad;" horiz-adv-x="344" 
d="M37 163v133h269v-133h-269z" />
    <glyph glyph-name="registered" unicode="&#xae;" horiz-adv-x="738" 
d="M200 156v397h188q67 0 100.5 -31.5t33.5 -80.5q0 -44 -29 -74t-78 -36v-2q23 -8 38.5 -24.5t37.5 -54.5l55 -94h-100l-33 64q-30 58 -53 78.5t-58 20.5h-21v-163h-81zM281 382h88q31 0 49.5 15.5t18.5 39.5q0 53 -83 53h-73v-108zM-5 356q0 155 109.5 264.5t264.5 109.5
t264.5 -109.5t109.5 -264.5t-109.5 -264.5t-264.5 -109.5t-264.5 109.5t-109.5 264.5zM68 356q0 -124 88 -212.5t213 -88.5t213 88.5t88 212.5t-88 212.5t-213 88.5t-213 -88.5t-88 -212.5z" />
    <glyph glyph-name="macron" unicode="&#xaf;" horiz-adv-x="333" 
d="M23 610v75h288v-75h-288z" />
    <glyph glyph-name="degree" unicode="&#xb0;" horiz-adv-x="400" 
d="M200 647q-31 0 -53 -22t-22 -53t22 -53t53 -22t53 22t22 53t-22 53t-53 22zM200 728q64 0 110 -46t46 -110t-46 -110t-110 -46t-110 46t-46 110t46 110t110 46z" />
    <glyph glyph-name="plusminus" unicode="&#xb1;" horiz-adv-x="668" 
d="M60 89h549v-121h-549v121zM60 484h214v214h121v-214h214v-121h-214v-214h-121v214h-214v121z" />
    <glyph glyph-name="two.superior" unicode="&#xb2;" horiz-adv-x="302" 
d="M2 336v15q41 38 95 114.5t54 109.5q0 18 -14 29.5t-36 11.5q-35 0 -87 -28v77q55 27 110 27t90 -28t35 -71q0 -35 -20 -73t-74 -105h119v-79h-272z" />
    <glyph glyph-name="three.superior" unicode="&#xb3;" horiz-adv-x="313" 
d="M26 350v75q56 -21 85 -21q27 0 43.5 11t16.5 29q0 17 -16 28t-43 11q-6 0 -16 -1v72q32 -1 50.5 8.5t18.5 25.5q0 14 -15 23.5t-38 9.5q-31 0 -80 -20v73q57 18 100 18q59 0 96.5 -27.5t37.5 -70.5q0 -23 -10.5 -39t-36.5 -33q31 -18 44 -37t13 -46q0 -47 -41 -77.5
t-105 -30.5q-39 0 -104 19z" />
    <glyph glyph-name="acute" unicode="&#xb4;" horiz-adv-x="333" 
d="M63 525l84 167h176l-185 -167h-75z" />
    <glyph glyph-name="mu" unicode="&#xb5;" horiz-adv-x="611" 
d="M93 462h144v-267q0 -99 73 -99q63 0 63 99v267h144v-462h-132v55h-2q-3 -27 -24 -44.5t-49 -17.5q-26 0 -47.5 18t-23.5 44h-2v-230h-144v637z" />
    <glyph glyph-name="paragraph" unicode="&#xb6;" horiz-adv-x="556" 
d="M309 -148h-116v429q-91 7 -141.5 59t-50.5 139t54 145.5t162 58.5h336v-128h-55v-703h-116v703h-73v-703z" />
    <glyph glyph-name="periodcentered" unicode="&#xb7;" horiz-adv-x="271" 
d="M136 421q33 0 56 -23t23 -56t-23 -56.5t-56 -23.5t-56.5 23.5t-23.5 56.5t23.5 56t56.5 23z" />
    <glyph glyph-name="cedilla" unicode="&#xb8;" horiz-adv-x="333" 
d="M67 -230v72q82 0 82 36q0 14 -12 23t-31 7l45 99l88 -5l-21 -46q27 -9 43.5 -30.5t16.5 -49.5q0 -45 -38 -75.5t-105 -30.5h-68z" />
    <glyph glyph-name="one.superior" unicode="&#xb9;" horiz-adv-x="302" 
d="M99 336v351h104v-351h-104z" />
    <glyph glyph-name="ordmasculine" unicode="&#xba;" horiz-adv-x="333" 
d="M17 540q0 66 42.5 109t107.5 43t107 -43t42 -110q0 -66 -42 -109t-107 -43t-107.5 43t-42.5 110zM125 540q0 -77 42 -77q22 0 31.5 18.5t9.5 61.5q0 73 -41 73q-42 0 -42 -76z" />
    <glyph glyph-name="guillemotright" unicode="&#xbb;" horiz-adv-x="510" 
d="M367 230l-132 230h116l132 -230l-132 -230h-116zM155 230l-132 230h116l132 -230l-132 -230h-116z" />
    <glyph glyph-name="onequarter" unicode="&#xbc;" horiz-adv-x="740" 
d="M588 0v87h-152v64l159 205h90v-203h35v-66h-35v-87h-97zM588 153v93h-2l-70 -93h72zM99 336v351h104v-351h-104zM128 -26l384 736h95l-378 -736h-101z" />
    <glyph glyph-name="onehalf" unicode="&#xbd;" horiz-adv-x="740" 
d="M99 336v351h104v-351h-104zM111 -26l384 736h95l-378 -736h-101zM439 0v15q41 38 95 114.5t54 109.5q0 18 -14 29.5t-36 11.5q-35 0 -87 -28v77q55 27 110 27t90 -28t35 -71q0 -35 -20 -73t-74 -105h119v-79h-272z" />
    <glyph glyph-name="threequarters" unicode="&#xbe;" horiz-adv-x="740" 
d="M588 0v87h-152v64l159 205h90v-203h35v-66h-35v-87h-97zM588 153v93h-2l-70 -93h72zM26 350v75q56 -21 85 -21q27 0 43.5 11t16.5 29q0 17 -16 28t-43 11q-6 0 -16 -1v72q32 -1 50.5 8.5t18.5 25.5q0 14 -15 23.5t-38 9.5q-31 0 -80 -20v73q57 18 100 18q59 0 96.5 -27.5
t37.5 -70.5q0 -23 -10.5 -39t-36.5 -33q31 -18 44 -37t13 -46q0 -47 -41 -77.5t-105 -30.5q-39 0 -104 19zM128 -26l384 736h95l-378 -736h-101z" />
    <glyph glyph-name="questiondown" unicode="&#xbf;" horiz-adv-x="354" 
d="M181 262h37q40 -59 40 -115q0 -50 -34 -115.5t-34 -93.5q0 -26 18 -44.5t44 -18.5q36 0 66 29l13 -3l-31 -120q-43 -11 -81 -11q-82 0 -132 43.5t-50 114.5q0 41 23 85.5t50 77t50 72.5t23 74q0 11 -2 25zM198 312q-33 0 -56 23t-23 56t23 56.5t56 23.5t56.5 -23.5
t23.5 -56.5t-23.5 -56t-56.5 -23z" />
    <glyph glyph-name="Agrave" unicode="&#xc0;" horiz-adv-x="531" 
d="M6 0l179 687h161l179 -687h-150l-32 142h-154l-33 -142h-150zM211 253h109l-53 248h-2zM369 733h-75l-185 167h176z" />
    <glyph glyph-name="Aacute" unicode="&#xc1;" horiz-adv-x="531" 
d="M6 0l179 687h161l179 -687h-150l-32 142h-154l-33 -142h-150zM211 253h109l-53 248h-2zM162 733l84 167h176l-185 -167h-75z" />
    <glyph glyph-name="Acircumflex" unicode="&#xc2;" horiz-adv-x="531" 
d="M6 0l179 687h161l179 -687h-150l-32 142h-154l-33 -142h-150zM211 253h109l-53 248h-2zM115 729l86 171h129l86 -171h-89l-61 86l-62 -86h-89z" />
    <glyph glyph-name="Atilde" unicode="&#xc3;" horiz-adv-x="531" 
d="M6 0l179 687h161l179 -687h-150l-32 142h-154l-33 -142h-150zM211 253h109l-53 248h-2zM161 755h-60q0 51 28 85t73 34q26 0 70 -17t59 -17q28 0 40 34h60q-2 -52 -31 -85.5t-72 -33.5q-27 0 -66.5 17.5t-55.5 17.5q-36 0 -45 -35z" />
    <glyph glyph-name="Adieresis" unicode="&#xc4;" horiz-adv-x="531" 
d="M6 0l179 687h161l179 -687h-150l-32 142h-154l-33 -142h-150zM211 253h109l-53 248h-2zM361 869q23 0 38.5 -15.5t15.5 -38.5t-15.5 -38.5t-38.5 -15.5t-38.5 15.5t-15.5 38.5t15.5 38.5t38.5 15.5zM170 869q22 0 38 -15.5t16 -38.5t-16 -38.5t-38 -15.5t-38 15.5
t-16 38.5t16 38.5t38 15.5z" />
    <glyph glyph-name="Aring" unicode="&#xc5;" horiz-adv-x="531" 
d="M6 0l179 687h161l179 -687h-150l-32 142h-154l-33 -142h-150zM211 253h109l-53 248h-2zM266 934q44 0 75.5 -31.5t31.5 -75.5t-31.5 -75.5t-75.5 -31.5t-75.5 31.5t-31.5 75.5t31.5 75.5t75.5 31.5zM266 888q-26 0 -43.5 -18t-17.5 -43t17.5 -43t43.5 -18t43.5 18
t17.5 43t-17.5 43t-43.5 18z" />
    <glyph glyph-name="AE" unicode="&#xc6;" horiz-adv-x="823" 
d="M-9 0l264 683h512v-118h-223v-160h204v-118h-204v-169h231v-118h-386v287h-141l-103 -287h-154zM287 398h102v201h-32z" />
    <glyph glyph-name="Ccedilla" unicode="&#xc7;" 
d="M200 -92l42 93q-94 25 -149.5 113.5t-55.5 220.5q0 162 75.5 259.5t201.5 97.5q81 0 154 -38v-131q-69 40 -117 40q-70 0 -113 -55.5t-43 -163.5q0 -109 38 -166.5t110 -57.5q57 0 130 55v-133q-62 -49 -145 -50l-16 -36q27 -9 43.5 -30.5t16.5 -49.5q0 -45 -38 -75.5
t-105 -30.5h-68v72q82 0 82 36q0 14 -12 23t-31 7z" />
    <glyph glyph-name="Egrave" unicode="&#xc8;" horiz-adv-x="510" 
d="M66 0v683h398v-118h-243v-159h226v-118h-226v-170h252v-118h-407zM359 733h-75l-185 167h176z" />
    <glyph glyph-name="Eacute" unicode="&#xc9;" horiz-adv-x="510" 
d="M66 0v683h398v-118h-243v-159h226v-118h-226v-170h252v-118h-407zM152 733l84 167h176l-185 -167h-75z" />
    <glyph glyph-name="Ecircumflex" unicode="&#xca;" horiz-adv-x="510" 
d="M66 0v683h398v-118h-243v-159h226v-118h-226v-170h252v-118h-407zM105 729l86 171h129l86 -171h-89l-61 86l-62 -86h-89z" />
    <glyph glyph-name="Edieresis" unicode="&#xcb;" horiz-adv-x="510" 
d="M66 0v683h398v-118h-243v-159h226v-118h-226v-170h252v-118h-407zM351 869q23 0 38.5 -15.5t15.5 -38.5t-15.5 -38.5t-38.5 -15.5t-38.5 15.5t-15.5 38.5t15.5 38.5t38.5 15.5zM160 869q22 0 38 -15.5t16 -38.5t-16 -38.5t-38 -15.5t-38 15.5t-16 38.5t16 38.5t38 15.5z
" />
    <glyph glyph-name="Igrave" unicode="&#xcc;" horiz-adv-x="292" 
d="M68 0v683h155v-683h-155zM250 733h-75l-185 167h176z" />
    <glyph glyph-name="Iacute" unicode="&#xcd;" horiz-adv-x="292" 
d="M68 0v683h155v-683h-155zM43 733l84 167h176l-185 -167h-75z" />
    <glyph glyph-name="Icircumflex" unicode="&#xce;" horiz-adv-x="292" 
d="M68 0v683h155v-683h-155zM-4 729l86 171h129l86 -171h-89l-61 86l-62 -86h-89z" />
    <glyph glyph-name="Idieresis" unicode="&#xcf;" horiz-adv-x="292" 
d="M68 0v683h155v-683h-155zM242 869q22 0 38 -15.5t16 -38.5t-16 -38.5t-38 -15.5t-38 15.5t-16 38.5t16 38.5t38 15.5zM51 869q23 0 38.5 -15.5t15.5 -38.5t-15.5 -38.5t-38.5 -15.5t-38.5 15.5t-15.5 38.5t15.5 38.5t38.5 15.5z" />
    <glyph glyph-name="Eth" unicode="&#xd0;" horiz-adv-x="604" 
d="M66 0v294h-78v95h78v294h202q62 0 112.5 -19t84 -51t56 -76t32.5 -91.5t10 -98.5q0 -62 -16 -121t-48 -111t-89.5 -83.5t-133.5 -31.5h-210zM221 115h37q80 0 113.5 57t33.5 167q0 229 -139 229h-45v-179h120v-95h-120v-179z" />
    <glyph glyph-name="Ntilde" unicode="&#xd1;" horiz-adv-x="615" 
d="M69 0v683h144l185 -386h2v386h146v-683h-135l-194 403h-2v-403h-146zM203 755h-60q0 51 28 85t73 34q26 0 70 -17t59 -17q28 0 40 34h60q-2 -52 -31 -85.5t-72 -33.5q-27 0 -66.5 17.5t-55.5 17.5q-36 0 -45 -35z" />
    <glyph glyph-name="Ograve" unicode="&#xd2;" horiz-adv-x="615" 
d="M38 348q0 84 23 151t61.5 108.5t86 63t98.5 21.5q50 0 96 -19.5t85.5 -59.5t63.5 -110t24 -162q0 -77 -17 -138.5t-44 -100.5t-63.5 -64.5t-72 -36t-72.5 -10.5q-52 0 -98.5 20.5t-85.5 61.5t-62 112t-23 163zM196 342q0 -108 25 -162.5t86 -54.5q56 0 83.5 49t27.5 168
q0 66 -8 110t-33.5 75t-69.5 31q-60 0 -85.5 -55t-25.5 -161zM411 733h-75l-185 167h176z" />
    <glyph glyph-name="Oacute" unicode="&#xd3;" horiz-adv-x="615" 
d="M38 348q0 84 23 151t61.5 108.5t86 63t98.5 21.5q50 0 96 -19.5t85.5 -59.5t63.5 -110t24 -162q0 -77 -17 -138.5t-44 -100.5t-63.5 -64.5t-72 -36t-72.5 -10.5q-52 0 -98.5 20.5t-85.5 61.5t-62 112t-23 163zM196 342q0 -108 25 -162.5t86 -54.5q56 0 83.5 49t27.5 168
q0 66 -8 110t-33.5 75t-69.5 31q-60 0 -85.5 -55t-25.5 -161zM204 733l84 167h176l-185 -167h-75z" />
    <glyph glyph-name="Ocircumflex" unicode="&#xd4;" horiz-adv-x="615" 
d="M38 348q0 84 23 151t61.5 108.5t86 63t98.5 21.5q50 0 96 -19.5t85.5 -59.5t63.5 -110t24 -162q0 -77 -17 -138.5t-44 -100.5t-63.5 -64.5t-72 -36t-72.5 -10.5q-52 0 -98.5 20.5t-85.5 61.5t-62 112t-23 163zM196 342q0 -108 25 -162.5t86 -54.5q56 0 83.5 49t27.5 168
q0 66 -8 110t-33.5 75t-69.5 31q-60 0 -85.5 -55t-25.5 -161zM157 729l86 171h129l86 -171h-89l-61 86l-62 -86h-89z" />
    <glyph glyph-name="Otilde" unicode="&#xd5;" horiz-adv-x="615" 
d="M38 348q0 84 23 151t61.5 108.5t86 63t98.5 21.5q50 0 96 -19.5t85.5 -59.5t63.5 -110t24 -162q0 -77 -17 -138.5t-44 -100.5t-63.5 -64.5t-72 -36t-72.5 -10.5q-52 0 -98.5 20.5t-85.5 61.5t-62 112t-23 163zM196 342q0 -108 25 -162.5t86 -54.5q56 0 83.5 49t27.5 168
q0 66 -8 110t-33.5 75t-69.5 31q-60 0 -85.5 -55t-25.5 -161zM203 755h-60q0 51 28 85t73 34q26 0 70 -17t59 -17q28 0 40 34h60q-2 -52 -31 -85.5t-72 -33.5q-27 0 -66.5 17.5t-55.5 17.5q-36 0 -45 -35z" />
    <glyph glyph-name="Odieresis" unicode="&#xd6;" horiz-adv-x="615" 
d="M38 348q0 84 23 151t61.5 108.5t86 63t98.5 21.5q50 0 96 -19.5t85.5 -59.5t63.5 -110t24 -162q0 -77 -17 -138.5t-44 -100.5t-63.5 -64.5t-72 -36t-72.5 -10.5q-52 0 -98.5 20.5t-85.5 61.5t-62 112t-23 163zM196 342q0 -108 25 -162.5t86 -54.5q56 0 83.5 49t27.5 168
q0 66 -8 110t-33.5 75t-69.5 31q-60 0 -85.5 -55t-25.5 -161zM403 869q23 0 38.5 -15.5t15.5 -38.5t-15.5 -38.5t-38.5 -15.5t-38.5 15.5t-15.5 38.5t15.5 38.5t38.5 15.5zM212 869q22 0 38 -15.5t16 -38.5t-16 -38.5t-38 -15.5t-38 15.5t-16 38.5t16 38.5t38 15.5z" />
    <glyph glyph-name="multiply" unicode="&#xd7;" horiz-adv-x="668" 
d="M74 505l86 86l174 -174l174 174l86 -86l-174 -174l174 -174l-85 -85l-175 175l-175 -175l-85 85l174 174z" />
    <glyph glyph-name="Oslash" unicode="&#xd8;" horiz-adv-x="615" 
d="M411 443l-178 -283q32 -35 74 -35q56 0 83.5 49t27.5 168q0 57 -7 101zM462 638l34 55l52 -33l-42 -67q70 -93 70 -252q0 -77 -17 -138.5t-44 -100.5t-63.5 -64.5t-72 -36t-72.5 -10.5q-83 0 -149 50l-37 -58l-48 35l41 66q-76 93 -76 265q0 84 23 151t61.5 108t86 62.5
t98.5 21.5q84 0 155 -54zM205 229l180 287q-25 42 -78 42q-60 0 -85.5 -55t-25.5 -161q0 -71 9 -113z" />
    <glyph glyph-name="Ugrave" unicode="&#xd9;" horiz-adv-x="594" 
d="M58 683h155v-470q0 -42 22 -67.5t62 -25.5q84 0 84 101v462h155v-449q0 -115 -60 -179t-179 -64q-112 0 -175.5 59t-63.5 182v451zM401 733h-75l-185 167h176z" />
    <glyph glyph-name="Uacute" unicode="&#xda;" horiz-adv-x="594" 
d="M58 683h155v-470q0 -42 22 -67.5t62 -25.5q84 0 84 101v462h155v-449q0 -115 -60 -179t-179 -64q-112 0 -175.5 59t-63.5 182v451zM194 733l84 167h176l-185 -167h-75z" />
    <glyph glyph-name="Ucircumflex" unicode="&#xdb;" horiz-adv-x="594" 
d="M58 683h155v-470q0 -42 22 -67.5t62 -25.5q84 0 84 101v462h155v-449q0 -115 -60 -179t-179 -64q-112 0 -175.5 59t-63.5 182v451zM147 729l86 171h129l86 -171h-89l-61 86l-62 -86h-89z" />
    <glyph glyph-name="Udieresis" unicode="&#xdc;" horiz-adv-x="594" 
d="M58 683h155v-470q0 -42 22 -67.5t62 -25.5q84 0 84 101v462h155v-449q0 -115 -60 -179t-179 -64q-112 0 -175.5 59t-63.5 182v451zM393 869q23 0 38.5 -15.5t15.5 -38.5t-15.5 -38.5t-38.5 -15.5t-38.5 15.5t-15.5 38.5t15.5 38.5t38.5 15.5zM202 869q22 0 38 -15.5
t16 -38.5t-16 -38.5t-38 -15.5t-38 15.5t-16 38.5t16 38.5t38 15.5z" />
    <glyph glyph-name="Yacute" unicode="&#xdd;" horiz-adv-x="542" 
d="M198 0v312l-189 371h166l103 -210l85 210h165l-171 -371v-312h-159zM168 733l84 167h176l-185 -167h-75z" />
    <glyph glyph-name="Thorn" unicode="&#xde;" horiz-adv-x="542" 
d="M66 0v683h155v-139h66q111 0 168 -61.5t57 -143.5q0 -25 -5 -49.5t-20 -52.5t-39 -49t-66 -35t-96 -14h-65v-139h-155zM221 257h45q50 0 70.5 21.5t20.5 62.5q0 36 -20 60.5t-66 24.5h-50v-169z" />
    <glyph glyph-name="germandbls" unicode="&#xdf;" horiz-adv-x="531" 
d="M56 0v482q0 107 58.5 158.5t157.5 51.5q89 0 144.5 -46.5t55.5 -120.5q0 -43 -19 -71.5t-63 -51.5q110 -37 110 -184q0 -97 -52.5 -160t-132.5 -63q-36 0 -65 13v96q12 -4 28 -4q78 0 78 115q0 66 -23.5 103t-73.5 32v90q77 3 77 80q0 39 -19 62t-51 23q-66 0 -66 -87
v-518h-144z" />
    <glyph glyph-name="agrave" unicode="&#xe0;" horiz-adv-x="479" 
d="M470 118v-82q-72 -44 -120 -44q-64 0 -74 64q-37 -35 -67 -50t-67 -15q-50 0 -84.5 33.5t-34.5 82.5q0 65 60 105t187 82v16q0 63 -58 63q-71 0 -158 -70v105q48 34 92 48.5t100 14.5q168 0 168 -133v-188q0 -33 2.5 -41.5t11.5 -8.5q16 0 42 18zM270 119v111
q-62 -22 -89.5 -43t-27.5 -50q0 -22 14 -35.5t36 -13.5q29 0 67 31zM343 525h-75l-185 167h176z" />
    <glyph glyph-name="aacute" unicode="&#xe1;" horiz-adv-x="479" 
d="M470 118v-82q-72 -44 -120 -44q-64 0 -74 64q-37 -35 -67 -50t-67 -15q-50 0 -84.5 33.5t-34.5 82.5q0 65 60 105t187 82v16q0 63 -58 63q-71 0 -158 -70v105q48 34 92 48.5t100 14.5q168 0 168 -133v-188q0 -33 2.5 -41.5t11.5 -8.5q16 0 42 18zM270 119v111
q-62 -22 -89.5 -43t-27.5 -50q0 -22 14 -35.5t36 -13.5q29 0 67 31zM136 525l84 167h176l-185 -167h-75z" />
    <glyph glyph-name="acircumflex" unicode="&#xe2;" horiz-adv-x="479" 
d="M470 118v-82q-72 -44 -120 -44q-64 0 -74 64q-37 -35 -67 -50t-67 -15q-50 0 -84.5 33.5t-34.5 82.5q0 65 60 105t187 82v16q0 63 -58 63q-71 0 -158 -70v105q48 34 92 48.5t100 14.5q168 0 168 -133v-188q0 -33 2.5 -41.5t11.5 -8.5q16 0 42 18zM270 119v111
q-62 -22 -89.5 -43t-27.5 -50q0 -22 14 -35.5t36 -13.5q29 0 67 31zM89 521l86 171h129l86 -171h-89l-61 86l-62 -86h-89z" />
    <glyph glyph-name="atilde" unicode="&#xe3;" horiz-adv-x="479" 
d="M470 118v-82q-72 -44 -120 -44q-64 0 -74 64q-37 -35 -67 -50t-67 -15q-50 0 -84.5 33.5t-34.5 82.5q0 65 60 105t187 82v16q0 63 -58 63q-71 0 -158 -70v105q48 34 92 48.5t100 14.5q168 0 168 -133v-188q0 -33 2.5 -41.5t11.5 -8.5q16 0 42 18zM270 119v111
q-62 -22 -89.5 -43t-27.5 -50q0 -22 14 -35.5t36 -13.5q29 0 67 31zM135 547h-60q0 51 28 85t73 34q26 0 70 -17t59 -17q28 0 40 34h60q-2 -52 -31 -85.5t-72 -33.5q-27 0 -66.5 17.5t-55.5 17.5q-36 0 -45 -35z" />
    <glyph glyph-name="adieresis" unicode="&#xe4;" horiz-adv-x="479" 
d="M470 118v-82q-72 -44 -120 -44q-64 0 -74 64q-37 -35 -67 -50t-67 -15q-50 0 -84.5 33.5t-34.5 82.5q0 65 60 105t187 82v16q0 63 -58 63q-71 0 -158 -70v105q48 34 92 48.5t100 14.5q168 0 168 -133v-188q0 -33 2.5 -41.5t11.5 -8.5q16 0 42 18zM270 119v111
q-62 -22 -89.5 -43t-27.5 -50q0 -22 14 -35.5t36 -13.5q29 0 67 31zM335 661q23 0 38.5 -15.5t15.5 -38.5t-15.5 -38.5t-38.5 -15.5t-38.5 15.5t-15.5 38.5t15.5 38.5t38.5 15.5zM144 661q22 0 38 -15.5t16 -38.5t-16 -38.5t-38 -15.5t-38 15.5t-16 38.5t16 38.5t38 15.5z
" />
    <glyph glyph-name="aring" unicode="&#xe5;" horiz-adv-x="479" 
d="M470 118v-82q-72 -44 -120 -44q-64 0 -74 64q-37 -35 -67 -50t-67 -15q-50 0 -84.5 33.5t-34.5 82.5q0 65 60 105t187 82v16q0 63 -58 63q-71 0 -158 -70v105q48 34 92 48.5t100 14.5q168 0 168 -133v-188q0 -33 2.5 -41.5t11.5 -8.5q16 0 42 18zM270 119v111
q-62 -22 -89.5 -43t-27.5 -50q0 -22 14 -35.5t36 -13.5q29 0 67 31zM240 726q44 0 75.5 -31.5t31.5 -75.5t-31.5 -75.5t-75.5 -31.5t-75.5 31.5t-31.5 75.5t31.5 75.5t75.5 31.5zM240 680q-26 0 -43.5 -18t-17.5 -43t17.5 -43t43.5 -18t43.5 18t17.5 43t-17.5 43t-43.5 18z
" />
    <glyph glyph-name="ae" unicode="&#xe6;" horiz-adv-x="719" 
d="M47 300v108q94 63 182 63q77 0 130 -44q62 44 132 44q81 0 135.5 -68t54.5 -194h-255q0 -63 33 -93.5t78 -30.5q62 0 133 41v-82q-92 -53 -175 -53q-107 0 -180 70q-77 -70 -159 -70q-57 0 -95 33t-38 82q0 66 64 107.5t189 74.5v10q0 79 -64 79q-71 0 -165 -77zM276 107
v112q-67 -30 -88 -46.5t-21 -45.5q0 -21 11.5 -34t30.5 -13q26 0 67 27zM426 275h121q0 112 -62 112q-35 0 -47 -27t-12 -85z" />
    <glyph glyph-name="ccedilla" unicode="&#xe7;" horiz-adv-x="427" 
d="M153 -92l43 95q-72 20 -116 81.5t-44 143.5q0 106 65 174.5t165 68.5q57 0 123 -31v-109q-50 30 -93 30q-48 0 -79 -36t-31 -91q0 -60 32 -97t83 -37q43 0 94 32v-111q-68 -28 -114 -29l-16 -36q27 -9 43.5 -30.5t16.5 -49.5q0 -45 -38 -75.5t-105 -30.5h-68v72
q82 0 82 36q0 14 -12 23t-31 7z" />
    <glyph glyph-name="egrave" unicode="&#xe8;" horiz-adv-x="469" 
d="M418 124v-87q-78 -46 -168 -46q-61 0 -105.5 22.5t-66.5 59t-32 73.5t-10 76q0 108 58 178.5t147 70.5q85 0 138.5 -66.5t51.5 -195.5h-249q5 -59 35 -90.5t81 -31.5q57 0 120 37zM182 275h116q-2 114 -57 114q-59 0 -59 -114zM338 525h-75l-185 167h176z" />
    <glyph glyph-name="eacute" unicode="&#xe9;" horiz-adv-x="469" 
d="M418 124v-87q-78 -46 -168 -46q-61 0 -105.5 22.5t-66.5 59t-32 73.5t-10 76q0 108 58 178.5t147 70.5q85 0 138.5 -66.5t51.5 -195.5h-249q5 -59 35 -90.5t81 -31.5q57 0 120 37zM182 275h116q-2 114 -57 114q-59 0 -59 -114zM131 525l84 167h176l-185 -167h-75z" />
    <glyph glyph-name="ecircumflex" unicode="&#xea;" horiz-adv-x="469" 
d="M418 124v-87q-78 -46 -168 -46q-61 0 -105.5 22.5t-66.5 59t-32 73.5t-10 76q0 108 58 178.5t147 70.5q85 0 138.5 -66.5t51.5 -195.5h-249q5 -59 35 -90.5t81 -31.5q57 0 120 37zM182 275h116q-2 114 -57 114q-59 0 -59 -114zM84 521l86 171h129l86 -171h-89l-61 86
l-62 -86h-89z" />
    <glyph glyph-name="edieresis" unicode="&#xeb;" horiz-adv-x="469" 
d="M418 124v-87q-78 -46 -168 -46q-61 0 -105.5 22.5t-66.5 59t-32 73.5t-10 76q0 108 58 178.5t147 70.5q85 0 138.5 -66.5t51.5 -195.5h-249q5 -59 35 -90.5t81 -31.5q57 0 120 37zM182 275h116q-2 114 -57 114q-59 0 -59 -114zM330 661q22 0 38 -15.5t16 -38.5t-16 -38.5
t-38 -15.5t-38 15.5t-16 38.5t16 38.5t38 15.5zM139 661q23 0 38.5 -15.5t15.5 -38.5t-15.5 -38.5t-38.5 -15.5t-38.5 15.5t-15.5 38.5t15.5 38.5t38.5 15.5z" />
    <glyph glyph-name="igrave" unicode="&#xec;" horiz-adv-x="260" 
d="M58 0v462h144v-462h-144zM234 525h-75l-185 167h176z" />
    <glyph glyph-name="iacute" unicode="&#xed;" horiz-adv-x="260" 
d="M58 0v462h144v-462h-144zM27 525l84 167h176l-185 -167h-75z" />
    <glyph glyph-name="icircumflex" unicode="&#xee;" horiz-adv-x="260" 
d="M58 0v462h144v-462h-144zM-20 521l86 171h129l86 -171h-89l-61 86l-62 -86h-89z" />
    <glyph glyph-name="idieresis" unicode="&#xef;" horiz-adv-x="260" 
d="M58 0v462h144v-462h-144zM226 661q22 0 38 -15.5t16 -38.5t-16 -38.5t-38 -15.5t-38 15.5t-16 38.5t16 38.5t38 15.5zM35 661q23 0 38.5 -15.5t15.5 -38.5t-15.5 -38.5t-38.5 -15.5t-38.5 15.5t-15.5 38.5t15.5 38.5t38.5 15.5z" />
    <glyph glyph-name="eth" unicode="&#xf0;" horiz-adv-x="517" 
d="M136 665h136q11 -9 39 -34l83 42l34 -34l-81 -43q58 -58 95 -145q40 -95 40 -229q0 -102 -63.5 -166.5t-161.5 -64.5q-100 0 -161.5 65.5t-61.5 174.5q0 105 62 172.5t156 67.5q36 0 59 -9q-20 40 -55 87l-83 -43l-34 34l86 45q-41 43 -89 80zM184 232q0 -72 18 -104
t56 -32t56 32t18 104q0 70 -18 102t-56 32q-39 0 -56.5 -31.5t-17.5 -102.5z" />
    <glyph glyph-name="ntilde" unicode="&#xf1;" horiz-adv-x="531" 
d="M56 0v462h144v-65h2q50 74 130 74q67 0 107 -43t40 -122v-306h-144v283q0 83 -56 83q-50 0 -79 -74v-292h-144zM161 547h-60q0 51 28 85t73 34q26 0 70 -17t59 -17q28 0 40 34h60q-2 -52 -31 -85.5t-72 -33.5q-27 0 -66.5 17.5t-55.5 17.5q-36 0 -45 -35z" />
    <glyph glyph-name="ograve" unicode="&#xf2;" 
d="M485 229q0 -105 -63 -173t-162 -68q-97 0 -160.5 68.5t-63.5 172.5q0 111 67 176.5t157 65.5q92 0 158.5 -66.5t66.5 -175.5zM333 229q0 137 -73 137q-74 0 -74 -137q0 -136 74 -136q38 0 55.5 32.5t17.5 103.5zM364 525h-75l-185 167h176z" />
    <glyph glyph-name="oacute" unicode="&#xf3;" 
d="M485 229q0 -105 -63 -173t-162 -68q-97 0 -160.5 68.5t-63.5 172.5q0 111 67 176.5t157 65.5q92 0 158.5 -66.5t66.5 -175.5zM333 229q0 137 -73 137q-74 0 -74 -137q0 -136 74 -136q38 0 55.5 32.5t17.5 103.5zM157 525l84 167h176l-185 -167h-75z" />
    <glyph glyph-name="ocircumflex" unicode="&#xf4;" 
d="M485 229q0 -105 -63 -173t-162 -68q-97 0 -160.5 68.5t-63.5 172.5q0 111 67 176.5t157 65.5q92 0 158.5 -66.5t66.5 -175.5zM333 229q0 137 -73 137q-74 0 -74 -137q0 -136 74 -136q38 0 55.5 32.5t17.5 103.5zM110 521l86 171h129l86 -171h-89l-61 86l-62 -86h-89z" />
    <glyph glyph-name="otilde" unicode="&#xf5;" 
d="M485 229q0 -105 -63 -173t-162 -68q-97 0 -160.5 68.5t-63.5 172.5q0 111 67 176.5t157 65.5q92 0 158.5 -66.5t66.5 -175.5zM333 229q0 137 -73 137q-74 0 -74 -137q0 -136 74 -136q38 0 55.5 32.5t17.5 103.5zM156 547h-60q0 51 28 85t73 34q26 0 70 -17t59 -17
q28 0 40 34h60q-2 -52 -31 -85.5t-72 -33.5q-27 0 -66.5 17.5t-55.5 17.5q-36 0 -45 -35z" />
    <glyph glyph-name="odieresis" unicode="&#xf6;" 
d="M485 229q0 -105 -63 -173t-162 -68q-97 0 -160.5 68.5t-63.5 172.5q0 111 67 176.5t157 65.5q92 0 158.5 -66.5t66.5 -175.5zM333 229q0 137 -73 137q-74 0 -74 -137q0 -136 74 -136q38 0 55.5 32.5t17.5 103.5zM356 661q22 0 38 -15.5t16 -38.5t-16 -38.5t-38 -15.5
t-38 15.5t-16 38.5t16 38.5t38 15.5zM165 661q23 0 38.5 -15.5t15.5 -38.5t-15.5 -38.5t-38.5 -15.5t-38.5 15.5t-15.5 38.5t15.5 38.5t38.5 15.5z" />
    <glyph glyph-name="divide" unicode="&#xf7;" horiz-adv-x="667" 
d="M334 201q29 0 50 -21t21 -50t-21 -50t-50 -21t-50 21t-21 50t21 50t50 21zM334 608q29 0 50 -21t21 -50t-21 -50t-50 -21t-50 21t-21 50t21 50t50 21zM60 394h547v-121h-547v121z" />
    <glyph glyph-name="oslash" unicode="&#xf8;" 
d="M467 453l-42 -57q60 -66 60 -167q0 -105 -63 -173t-162 -68q-65 0 -115 33l-43 -58l-41 30l44 59q-69 67 -69 177q0 111 67 176.5t157 65.5q72 0 127 -40l38 52zM330 269l-116 -156q16 -20 46 -20q38 0 55.5 32.5t17.5 103.5q0 24 -3 40zM191 168l123 166q-17 32 -54 32
q-74 0 -74 -137q0 -34 5 -61z" />
    <glyph glyph-name="ugrave" unicode="&#xf9;" horiz-adv-x="531" 
d="M331 0v59h-2q-38 -68 -128 -68q-65 0 -107.5 42.5t-42.5 131.5v297h144v-289q0 -77 56 -77q58 0 80 73v293h144v-462h-144zM369 525h-75l-185 167h176z" />
    <glyph glyph-name="uacute" unicode="&#xfa;" horiz-adv-x="531" 
d="M331 0v59h-2q-38 -68 -128 -68q-65 0 -107.5 42.5t-42.5 131.5v297h144v-289q0 -77 56 -77q58 0 80 73v293h144v-462h-144zM162 525l84 167h176l-185 -167h-75z" />
    <glyph glyph-name="ucircumflex" unicode="&#xfb;" horiz-adv-x="531" 
d="M331 0v59h-2q-38 -68 -128 -68q-65 0 -107.5 42.5t-42.5 131.5v297h144v-289q0 -77 56 -77q58 0 80 73v293h144v-462h-144zM115 521l86 171h129l86 -171h-89l-61 86l-62 -86h-89z" />
    <glyph glyph-name="udieresis" unicode="&#xfc;" horiz-adv-x="531" 
d="M331 0v59h-2q-38 -68 -128 -68q-65 0 -107.5 42.5t-42.5 131.5v297h144v-289q0 -77 56 -77q58 0 80 73v293h144v-462h-144zM361 661q23 0 38.5 -15.5t15.5 -38.5t-15.5 -38.5t-38.5 -15.5t-38.5 15.5t-15.5 38.5t15.5 38.5t38.5 15.5zM170 661q22 0 38 -15.5t16 -38.5
t-16 -38.5t-38 -15.5t-38 15.5t-16 38.5t16 38.5t38 15.5z" />
    <glyph glyph-name="yacute" unicode="&#xfd;" horiz-adv-x="479" 
d="M42 -220l125 305l-162 377h146l88 -211l83 211h146l-280 -682h-146zM136 525l84 167h176l-185 -167h-75z" />
    <glyph glyph-name="thorn" unicode="&#xfe;" horiz-adv-x="542" 
d="M58 -220v903h144v-265q61 53 125 53q76 0 126 -69t50 -175q0 -101 -50 -168.5t-124 -67.5q-60 0 -127 52v-263h-144zM202 320v-177q36 -40 74 -40q35 0 56 35.5t21 96.5q0 62 -19 96.5t-53 34.5q-39 0 -79 -46z" />
    <glyph glyph-name="ydieresis" unicode="&#xff;" horiz-adv-x="479" 
d="M42 -220l125 305l-162 377h146l88 -211l83 211h146l-280 -682h-146zM335 661q23 0 38.5 -15.5t15.5 -38.5t-15.5 -38.5t-38.5 -15.5t-38.5 15.5t-15.5 38.5t15.5 38.5t38.5 15.5zM144 661q22 0 38 -15.5t16 -38.5t-16 -38.5t-38 -15.5t-38 15.5t-16 38.5t16 38.5t38 15.5
z" />
    <glyph glyph-name="dotlessi" unicode="&#x131;" horiz-adv-x="260" 
d="M58 0v462h144v-462h-144z" />
    <glyph glyph-name="Lslash" unicode="&#x141;" horiz-adv-x="479" 
d="M66 0v193l-64 -76v111l64 76v379h155v-195l98 115v-111l-98 -115v-259h250v-118h-405z" />
    <glyph glyph-name="lslash" unicode="&#x142;" horiz-adv-x="313" 
d="M228 393v-393h-144v212h-2l-70 -88v111l72 88v360h144v-180h2l70 89v-111z" />
    <glyph glyph-name="OE" unicode="&#x152;" horiz-adv-x="844" 
d="M803 0h-464q-121 0 -192 62q-109 97 -109 275q0 115 45 198.5t128 120.5q60 27 152 27h430v-119h-242v-156h224v-119h-224v-170h252v-119zM395 119v445h-17q-70 0 -103 -20q-79 -46 -79 -206q0 -123 51 -177q22 -24 49.5 -33t76.5 -9h22z" />
    <glyph glyph-name="oe" unicode="&#x153;" horiz-adv-x="781" 
d="M733 120v-82q-84 -47 -177 -47q-92 0 -156 57q-66 -57 -146 -57q-98 0 -158.5 67.5t-60.5 176.5q0 106 61.5 171t159.5 65q88 0 151 -56q64 56 140 56q89 0 144.5 -71t51.5 -192h-263q5 -58 38 -90.5t88 -32.5q59 0 127 35zM185 230q0 -134 77 -134q73 0 73 136
q0 134 -74 134q-76 0 -76 -136zM478 274h132q-5 113 -68 113q-31 0 -48.5 -28.5t-15.5 -84.5z" />
    <glyph glyph-name="Scaron" unicode="&#x160;" horiz-adv-x="448" 
d="M44 45v147q88 -72 144 -72q28 0 45.5 16t17.5 41q0 27 -22 57t-53.5 59t-62.5 61t-53 75t-22 89q0 74 56.5 124t139.5 50q72 0 149 -42v-128q-88 49 -132 49q-28 0 -45.5 -13t-17.5 -34q0 -22 23 -50.5t55 -59t64.5 -64.5t55.5 -78.5t23 -89.5q0 -82 -56.5 -136.5
t-141.5 -54.5q-76 0 -167 54zM74 900h89l62 -86l61 86h89l-86 -171h-129z" />
    <glyph glyph-name="scaron" unicode="&#x161;" horiz-adv-x="396" 
d="M40 30v107q84 -48 148 -48q24 0 38.5 10.5t14.5 29.5q0 17 -21.5 30t-52.5 24.5t-61.5 27t-52 44.5t-21.5 69q0 65 47.5 106t121.5 41q75 0 150 -42v-95q-45 24 -83 36q-34 10 -68 10q-56 0 -56 -33q0 -17 23 -30t56 -25t66.5 -28t56.5 -47.5t23 -75.5q0 -66 -48 -108
t-124 -42q-72 0 -157 39zM48 692h89l62 -86l61 86h89l-86 -171h-129z" />
    <glyph glyph-name="Ydieresis" unicode="&#x178;" horiz-adv-x="542" 
d="M198 0v312l-189 371h166l103 -210l85 210h165l-171 -371v-312h-159zM367 869q23 0 38.5 -15.5t15.5 -38.5t-15.5 -38.5t-38.5 -15.5t-38.5 15.5t-15.5 38.5t15.5 38.5t38.5 15.5zM176 869q22 0 38 -15.5t16 -38.5t-16 -38.5t-38 -15.5t-38 15.5t-16 38.5t16 38.5t38 15.5
z" />
    <glyph glyph-name="Zcaron" unicode="&#x17d;" horiz-adv-x="500" 
d="M13 0l244 565h-217v118h428l-242 -565h242v-118h-455zM100 900h89l62 -86l61 86h89l-86 -171h-129z" />
    <glyph glyph-name="zcaron" unicode="&#x17e;" horiz-adv-x="448" 
d="M18 0l188 357h-167v105h375l-183 -357h183v-105h-396zM74 692h89l62 -86l61 86h89l-86 -171h-129z" />
    <glyph glyph-name="florin" unicode="&#x192;" horiz-adv-x="556" 
d="M349 469h60v-82h-72l-78 -495q-10 -64 -39.5 -94t-81.5 -30q-51 0 -115 28l22 101q32 -17 50 -17q17 0 24 13t13 52l70 442h-65v82h72l13 89q10 65 37.5 99.5t83.5 34.5q58 0 118 -30l-16 -101q-30 18 -52 18q-15 0 -22 -12.5t-14 -52.5z" />
    <glyph glyph-name="circumflex" unicode="&#x2c6;" horiz-adv-x="333" 
d="M16 521l86 171h129l86 -171h-89l-61 86l-62 -86h-89z" />
    <glyph glyph-name="caron" unicode="&#x2c7;" horiz-adv-x="333" 
d="M16 692h89l62 -86l61 86h89l-86 -171h-129z" />
    <glyph glyph-name="uni02C9" unicode="&#x2c9;" horiz-adv-x="333" 
d="M23 610v75h288v-75h-288z" />
    <glyph glyph-name="breve" unicode="&#x2d8;" horiz-adv-x="333" 
d="M8 692h49q29 -75 108 -75q77 0 111 75h49q-24 -158 -161 -158q-71 0 -110.5 46.5t-45.5 111.5z" />
    <glyph glyph-name="dotaccent" unicode="&#x2d9;" horiz-adv-x="333" 
d="M167 661q23 0 38.5 -15.5t15.5 -38.5t-15.5 -38.5t-38.5 -15.5t-38.5 15.5t-15.5 38.5t15.5 38.5t38.5 15.5z" />
    <glyph glyph-name="ring" unicode="&#x2da;" horiz-adv-x="333" 
d="M167 726q44 0 75.5 -31.5t31.5 -75.5t-31.5 -75.5t-75.5 -31.5t-75.5 31.5t-31.5 75.5t31.5 75.5t75.5 31.5zM167 680q-25 0 -43 -18t-18 -43t18 -43t43 -18t43 18t18 43t-18 43t-43 18z" />
    <glyph glyph-name="ogonek" unicode="&#x2db;" horiz-adv-x="333" 
d="M106 13h72q-7 -45 -7 -72q0 -77 59 -77q19 0 55 13v-78q-53 -23 -91 -23q-50 0 -79 32t-29 87q0 45 20 118z" />
    <glyph glyph-name="tilde" unicode="&#x2dc;" horiz-adv-x="333" 
d="M62 547h-60q0 51 28 85t73 34q26 0 70 -17t59 -17q28 0 40 34h60q-2 -52 -31 -85.5t-72 -33.5q-27 0 -66.5 17.5t-55.5 17.5q-36 0 -45 -35z" />
    <glyph glyph-name="hungarumlaut" unicode="&#x2dd;" horiz-adv-x="333" 
d="M223 518l84 167h176l-185 -167h-75zM10 518l84 167h176l-185 -167h-75z" />
    <glyph glyph-name="uni03A9" unicode="&#x3a9;" horiz-adv-x="654" 
d="M154 108v3q-109 111 -109 266q0 128 79 218.5t205 90.5q66 0 120.5 -27.5t87.5 -72t51 -96.5t18 -105q0 -84 -32 -156t-79 -118v-3h125v-108h-251v80q45 29 74 98t29 177q0 93 -38 156t-106 63q-67 0 -108 -62.5t-41 -161.5q0 -100 30 -171.5t74 -98.5v-80h-252v108h123z
" />
    <glyph glyph-name="uni03BC" unicode="&#x3bc;" horiz-adv-x="611" 
d="M93 462h144v-267q0 -99 73 -99q63 0 63 99v267h144v-462h-132v55h-2q-3 -27 -24 -44.5t-49 -17.5q-26 0 -47.5 18t-23.5 44h-2v-230h-144v637z" />
    <glyph glyph-name="pi" unicode="&#x3c0;" horiz-adv-x="570" 
d="M549 394h-63v-253q0 -88 12 -141h-128q-17 31 -17 137v257h-117q-5 -88 -21 -205t-38 -189h-128q23 86 39 202t17 192q-60 0 -87 -8l-15 89q41 34 159 34h397z" />
    <glyph glyph-name="endash" unicode="&#x2013;" horiz-adv-x="500" 
d="M508 297v-132h-516v132h516z" />
    <glyph glyph-name="emdash" unicode="&#x2014;" horiz-adv-x="1000" 
d="M1007 297v-132h-1014v132h1014z" />
    <glyph glyph-name="quoteleft" unicode="&#x2018;" horiz-adv-x="271" 
d="M220 692v-25q-45 -39 -52 -122q56 -22 56 -79q0 -33 -23 -56t-56 -23q-42 0 -68 31.5t-26 83.5q0 71 43.5 119.5t125.5 70.5z" />
    <glyph glyph-name="quoteright" unicode="&#x2019;" horiz-adv-x="271" 
d="M51 387v25q45 39 52 122q-56 22 -56 79q0 33 23 56t56 23q42 0 68 -31.5t26 -83.5q0 -71 -43.5 -119.5t-125.5 -70.5z" />
    <glyph glyph-name="quotesinglbase" unicode="&#x201a;" horiz-adv-x="271" 
d="M55 -152v25q45 39 52 122q-56 22 -56 79q0 33 23 56t56 23q42 0 68 -31.5t26 -83.5q0 -71 -43.5 -119.5t-125.5 -70.5z" />
    <glyph glyph-name="quotedblleft" unicode="&#x201c;" horiz-adv-x="500" 
d="M450 692v-25q-45 -39 -52 -122q56 -22 56 -79q0 -33 -23 -56t-56 -23q-42 0 -68 31.5t-26 83.5q0 71 43.5 119.5t125.5 70.5zM215 692v-25q-45 -39 -52 -122q56 -22 56 -79q0 -33 -23 -56t-56 -23q-42 0 -68 31.5t-26 83.5q0 71 43.5 119.5t125.5 70.5z" />
    <glyph glyph-name="quotedblright" unicode="&#x201d;" horiz-adv-x="500" 
d="M285 387v25q45 39 52 122q-56 22 -56 79q0 33 23 56t56 23q42 0 68 -31.5t26 -83.5q0 -71 -43.5 -119.5t-125.5 -70.5zM50 387v25q45 39 52 122q-56 22 -56 79q0 33 23 56t56 23q42 0 68 -31.5t26 -83.5q0 -71 -43.5 -119.5t-125.5 -70.5z" />
    <glyph glyph-name="quotedblbase" unicode="&#x201e;" horiz-adv-x="500" 
d="M285 -152v25q45 39 52 122q-56 22 -56 79q0 33 23 56t56 23q42 0 68 -31.5t26 -83.5q0 -71 -43.5 -119.5t-125.5 -70.5zM50 -152v25q45 39 52 122q-56 22 -56 79q0 33 23 56t56 23q42 0 68 -31.5t26 -83.5q0 -71 -43.5 -119.5t-125.5 -70.5z" />
    <glyph glyph-name="dagger" unicode="&#x2020;" horiz-adv-x="500" 
d="M476 456v-74q0 -27 -6.5 -32.5t-29.5 -0.5l-167 41l55 -589q2 -21 -0.5 -27t-16.5 -6h-124q-14 0 -16.5 7.5t-0.5 25.5l56 589l-166 -41q-22 -7 -29 -0.5t-7 37.5v68q0 21 7 26t29 0l166 -41l-44 220q-4 21 3 27t35 6h60q21 0 30 -3.5t9.5 -11t-2.5 -18.5l-44 -220
l167 41q21 5 28.5 0t7.5 -24z" />
    <glyph glyph-name="daggerdbl" unicode="&#x2021;" horiz-adv-x="510" 
d="M201 632q-10 36 -1.5 48t55.5 12q46 0 54 -10t1 -50l-31 -168l158 34q24 5 32.5 -5.5t8.5 -54.5q0 -40 -7.5 -49.5t-26.5 -5.5l-165 34l31 -188l-31 -188l155 34q27 6 35.5 -2.5t8.5 -52.5t-8 -54.5t-33 -5.5l-158 34l31 -167q7 -41 -1.5 -50t-53.5 -9q-48 0 -56 12t2 47
l31 167l-159 -34q-23 -5 -32 5.5t-9 54.5q0 42 8.5 51.5t36.5 3.5l155 -34l-31 188l31 188l-166 -34q-19 -4 -26.5 5.5t-7.5 49.5q0 43 8.5 54t32.5 6l159 -34z" />
    <glyph glyph-name="bullet" unicode="&#x2022;" horiz-adv-x="350" 
d="M176 498q60 0 102 -42t42 -102t-42 -102.5t-102 -42.5t-102.5 42.5t-42.5 102.5t42.5 102t102.5 42z" />
    <glyph glyph-name="ellipsis" unicode="&#x2026;" horiz-adv-x="1000" 
d="M834 150q33 0 56 -23t23 -56t-23 -56.5t-56 -23.5t-56.5 23.5t-23.5 56.5t23.5 56t56.5 23zM501 150q33 0 56 -23t23 -56t-23 -56.5t-56 -23.5t-56.5 23.5t-23.5 56.5t23.5 56t56.5 23zM168 150q33 0 56 -23t23 -56t-23 -56.5t-56 -23.5t-56.5 23.5t-23.5 56.5t23.5 56
t56.5 23z" />
    <glyph glyph-name="perthousand" unicode="&#x2030;" horiz-adv-x="990" 
d="M695 175q0 87 35.5 134t102.5 47t103 -47t36 -134q0 -86 -36 -133t-103 -47t-102.5 47t-35.5 133zM798 175q0 -60 8 -84t27 -24q20 0 28 24t8 84q0 61 -8 85t-28 24t-27.5 -24t-7.5 -85zM385 175q0 87 35.5 134t102.5 47t103 -47t36 -134q0 -86 -36 -133t-103 -47
t-102.5 47t-35.5 133zM488 175q0 -60 8 -84t27 -24q20 0 28 24t8 84q0 61 -8 85t-28 24t-27.5 -24t-7.5 -85zM18 511q0 87 35.5 134t102.5 47t103 -47t36 -134q0 -86 -36 -133t-103 -47t-102.5 47t-35.5 133zM121 511q0 -60 8 -84t27 -24q20 0 28 24t8 84q0 61 -8 85.5
t-28 24.5q-19 0 -27 -24.5t-8 -85.5zM98 -26l383 736h96l-379 -736h-100z" />
    <glyph glyph-name="guilsinglleft" unicode="&#x2039;" horiz-adv-x="302" 
d="M143 230l132 -230h-116l-132 230l132 230h116z" />
    <glyph glyph-name="guilsinglright" unicode="&#x203a;" horiz-adv-x="302" 
d="M159 230l-132 230h116l132 -230l-132 -230h-116z" />
    <glyph glyph-name="fraction" unicode="&#x2044;" horiz-adv-x="125" 
d="M-179 -26l384 736h95l-378 -736h-101z" />
    <glyph glyph-name="Euro" unicode="&#x20ac;" 
d="M481 660l-19 -111q-48 25 -106 25q-52 0 -91.5 -35t-56.5 -100h232l-12 -75h-231v-20q0 -17 1 -25h222l-12 -75h-200q15 -64 51 -99.5t89 -35.5q70 0 130 45v-122q-32 -25 -68 -33t-91 -8q-104 0 -176 67.5t-93 185.5h-51l12 75h31v16q0 19 1 29h-44l12 75h40
q23 118 93.5 185.5t174.5 67.5t162 -32z" />
    <glyph glyph-name="afii61289" unicode="&#x2113;" horiz-adv-x="486" 
d="M419 186l52 -55q-68 -137 -198 -137q-81 0 -123.5 43t-50.5 112v10q-6 -5 -22.5 -17.5t-25.5 -19.5l-31 70q77 66 78 67v240q0 121 49 184t125 63q67 0 100.5 -48.5t33.5 -126.5q0 -148 -181 -329l1 -46q1 -45 22.5 -70.5t55.5 -25.5q61 0 115 86zM225 497v-133
q101 121 101 214q0 73 -47 73q-54 0 -54 -154z" />
    <glyph glyph-name="trademark" unicode="&#x2122;" horiz-adv-x="1000" 
d="M230 316v330h-124v70h325v-70h-120v-330h-81zM479 316v400h126l72 -275h2l72 275h127v-400h-77v318h-2l-85 -318h-74l-83 318h-2v-318h-76z" />
    <glyph glyph-name="Omega" unicode="&#x2126;" horiz-adv-x="654" 
d="M154 108v3q-109 111 -109 266q0 128 79 218.5t205 90.5q66 0 120.5 -27.5t87.5 -72t51 -96.5t18 -105q0 -84 -32 -156t-79 -118v-3h125v-108h-251v80q45 29 74 98t29 177q0 93 -38 156t-106 63q-67 0 -108 -62.5t-41 -161.5q0 -100 30 -171.5t74 -98.5v-80h-252v108h123z
" />
    <glyph glyph-name="estimated" unicode="&#x212e;" horiz-adv-x="845" 
d="M811 332h-630q-5 0 -5 -4v-191q0 -12 8 -22q101 -104 239 -104q148 0 251 116h56q-53 -63 -134.5 -99t-173.5 -36q-161 0 -275 102t-114 247t114 248t275 103t275 -103t114 -248v-9zM668 357v191q0 14 -9 23q-102 100 -236 100q-137 0 -238 -103q-9 -9 -9 -24v-187
q0 -7 5 -7h483q4 0 4 7z" />
    <glyph glyph-name="partialdiff" unicode="&#x2202;" horiz-adv-x="545" 
d="M98 611l-36 101q74 56 175 56q112 0 187.5 -96.5t75.5 -272.5q0 -187 -71 -295t-197 -108q-93 0 -145 71t-52 159q0 116 58.5 185.5t144.5 69.5q48 0 82.5 -23t48.5 -47h1q1 7 1 29q0 86 -42 151.5t-110 65.5q-63 0 -121 -46zM246 107h1q44 0 74 60t38 134
q-7 25 -32.5 48.5t-61.5 23.5q-44 0 -72 -45.5t-28 -107.5q0 -48 22.5 -80.5t58.5 -32.5z" />
    <glyph glyph-name="Delta" unicode="&#x2206;" horiz-adv-x="616" 
d="M24 0v77l208 612h158l200 -610v-79h-566zM160 108h290l-92 259q-7 25 -26.5 88.5t-24.5 85.5h-2q-4 -17 -22 -74.5t-25 -85.5z" />
    <glyph glyph-name="product" unicode="&#x220f;" horiz-adv-x="682" 
d="M658 554h-93v-647h-131v647h-187v-647h-131v647h-93v122h635v-122z" />
    <glyph glyph-name="summation" unicode="&#x2211;" horiz-adv-x="523" 
d="M506 -93h-484v86l219 299l-212 290v94h461v-113h-285v-3l184 -244l-207 -282v-3h324v-124z" />
    <glyph glyph-name="minus" unicode="&#x2212;" horiz-adv-x="667" 
d="M59 394h549v-121h-549v121z" />
    <glyph glyph-name="uni2215" unicode="&#x2215;" horiz-adv-x="125" 
d="M-179 -26l384 736h95l-378 -736h-101z" />
    <glyph glyph-name="uni2219" unicode="&#x2219;" horiz-adv-x="271" 
d="M136 421q33 0 56 -23t23 -56t-23 -56.5t-56 -23.5t-56.5 23.5t-23.5 56.5t23.5 56t56.5 23z" />
    <glyph glyph-name="radical" unicode="&#x221a;" horiz-adv-x="562" 
d="M570 813l-210 -945h-104l-136 417l-69 -28l-21 74l169 69l90 -290q4 -24 19 -89l1 -1q2 12 7.5 48t7.5 49l156 696h90z" />
    <glyph glyph-name="infinity" unicode="&#x221e;" horiz-adv-x="740" 
d="M695 279v-1q0 -76 -46 -122t-109 -46q-44 0 -84.5 23t-84.5 83q-42 -52 -82 -79t-93 -27q-61 0 -106 46t-45 117q0 73 45.5 119.5t114.5 46.5q90 0 169 -103q22 26 31.5 36t33.5 30.5t50 28.5t56 8q64 0 107 -44.5t43 -115.5zM205 181h2q24 0 48 14.5t39 30t38 44.5
q-21 29 -29 39.5t-26 29t-35.5 25t-38.5 6.5q-40 0 -63 -27t-23 -71q0 -38 25.5 -64.5t62.5 -26.5zM538 370h-1q-16 0 -30.5 -5t-30.5 -19t-23 -20.5t-24.5 -27t-18.5 -21.5q43 -55 70.5 -75.5t61.5 -20.5q36 0 58 29.5t22 62.5q0 42 -23 69.5t-61 27.5z" />
    <glyph glyph-name="integral" unicode="&#x222b;" horiz-adv-x="386" 
d="M362 827l-13 -92q-18 8 -33 8q-30 0 -47 -25q-23 -31 -23 -160q0 -77 6.5 -223t6.5 -237q0 -129 -32 -193q-37 -75 -129 -75q-46 0 -76 16l16 95q20 -9 40 -9q27 0 40 18q24 33 24 146q0 92 -7 242t-7 232q0 86 13.5 137t44.5 85q42 46 116 46q34 0 60 -11z" />
    <glyph glyph-name="approxequal" unicode="&#x2248;" horiz-adv-x="513" 
d="M432 439l45 -42q-22 -46 -56 -73.5t-72 -27.5q-43 0 -104 38q-50 32 -79 32q-6 0 -12 -1t-10.5 -2.5t-10.5 -5.5t-9 -5.5t-8.5 -7.5t-7.5 -7.5t-7.5 -9.5t-6.5 -9t-7 -10t-7 -10l-46 42q21 44 58 72t80 28q13 0 24.5 -2t23 -6.5t17.5 -7.5t18.5 -10t14.5 -8
q3 -2 10.5 -6.5t10 -6.5t8.5 -5.5t8.5 -5t8 -4t8.5 -3.5t7.5 -2t9 -1.5t8.5 -0.5q25 0 43 16.5t40 51.5zM432 258l45 -42q-51 -101 -129 -101q-42 0 -103 38q-52 32 -79 32q-15 0 -27 -4.5t-24 -18.5t-16.5 -20t-18.5 -26l-46 43q21 44 58 71.5t80 27.5q9 0 18 -1t17.5 -3.5
t14 -4.5t14 -6t12 -5.5t11.5 -6.5t10 -6q6 -4 20 -12.5t21 -12t18 -7t21 -3.5q25 0 42.5 16.5t40.5 51.5z" />
    <glyph glyph-name="notequal" unicode="&#x2260;" horiz-adv-x="513" 
d="M381 495l-35 -82h122v-76h-150l-54 -126h204v-76h-232l-45 -106l-59 23l36 83h-124v76h152l53 126h-205v76h233l45 105z" />
    <glyph glyph-name="lessequal" unicode="&#x2264;" horiz-adv-x="513" 
d="M466 96l-417 213v82l416 213v-89l-342 -164v-2l343 -164v-89zM470 -16h-424v77h424v-77z" />
    <glyph glyph-name="greaterequal" unicode="&#x2265;" horiz-adv-x="513" 
d="M51 604l417 -213v-83l-416 -212v89l342 164v2l-343 164v89zM468 -16h-421v77h421v-77z" />
    <glyph glyph-name="lozenge" unicode="&#x25ca;" horiz-adv-x="561" 
d="M515 337l-185 -385h-106l-178 385l185 386h106zM399 334l-98 218q-12 33 -17 62h-4q-6 -27 -18 -62l-100 -212l100 -222q12 -42 15 -58h5q7 34 16 56z" />
    </font>
</defs>
</svg>
